<?xml version="1.0" standalone="no"?>
<!DOCTYPE svg PUBLIC "-//W3C//DTD SVG 1.1//EN" "http://www.w3.org/Graphics/SVG/1.1/DTD/svg11.dtd" >
<svg xmlns="http://www.w3.org/2000/svg" xmlns:xlink="http://www.w3.org/1999/xlink" version="1.1">
<metadata>
Created by FontForge 20150913 at Sun Apr 17 09:56:35 2016
 By Jimmy Wärting
</metadata>
<defs>
<font id="KozMinPro-Bold-AlphaNum" horiz-adv-x="1000" vert-adv-y="1000" >
  <font-face 
    font-family="(null)"
    font-weight="700"
    font-stretch="normal"
    units-per-em="1000"
    panose-1="2 0 8 3 0 0 0 0 0 0"
    ascent="800"
    descent="-200"
    x-height="505"
    cap-height="746"
    bbox="24 -93 976 852"
    underline-thickness="50"
    underline-position="-100"
    stemh="32"
    stemv="84"
    unicode-range="U+2150-1F189"
  />
    <missing-glyph />
    <glyph glyph-name="Japan1.7555" unicode="&#x2460;" 
d="M500 849c261 0 469 -212 469 -469c0 -259 -210 -469 -469 -469s-469 210 -469 469s210 469 469 469zM500 824c-247 0 -444 -201 -444 -444c0 -245 199 -444 444 -444s444 199 444 444s-199 444 -444 444zM372 566l-10 33c73 22 134 49 181 75l13 -6v-469
c0 -58 5 -65 95 -65v-35h-291v35c95 0 100 7 100 65v334c0 35 -3 50 -19 50c-12 0 -32 -5 -69 -17z" />
    <glyph glyph-name="Japan1.7556" unicode="&#x2461;" 
d="M500 849c261 0 469 -212 469 -469c0 -259 -210 -469 -469 -469s-469 210 -469 469s210 469 469 469zM500 824c-247 0 -444 -201 -444 -444c0 -245 199 -444 444 -444s444 199 444 444s-199 444 -444 444zM696 238l-25 -138h-355l-12 12c35 171 121 240 194 292
c58 42 90 78 90 138c0 69 -40 98 -91 98c-65 0 -83 -50 -91 -85c-7 -28 -25 -42 -51 -42c-18 0 -35 16 -35 42c0 42 49 121 180 121s191 -65 191 -143c0 -57 -36 -103 -79 -137c-51 -38 -102 -67 -143 -97c-49 -34 -80 -76 -98 -134h206c55 0 64 12 81 77z" />
    <glyph glyph-name="Japan1.7557" unicode="&#x2462;" 
d="M500 849c261 0 469 -212 469 -469c0 -259 -210 -469 -469 -469s-469 210 -469 469s210 469 469 469zM500 824c-247 0 -444 -201 -444 -444c0 -245 199 -444 444 -444s444 199 444 444s-199 444 -444 444zM427 386v35c37 0 150 12 150 120c0 52 -30 99 -90 99
c-37 0 -73 -26 -89 -73c-10 -29 -18 -48 -51 -48c-23 0 -34 18 -34 42c0 49 64 115 179 115c156 0 184 -87 184 -139c0 -16 -3 -112 -148 -128v-3c96 -4 172 -60 172 -149c0 -81 -62 -169 -212 -169c-125 0 -188 68 -188 118c0 26 13 43 38 43c16 0 26 -6 37 -22
c10 -13 19 -33 34 -53c17 -28 40 -50 81 -50c42 0 107 22 107 128c0 104 -82 134 -170 134z" />
    <glyph glyph-name="Japan1.7558" unicode="&#x2463;" 
d="M500 849c261 0 469 -212 469 -469c0 -259 -210 -469 -469 -469s-469 210 -469 469s210 469 469 469zM500 824c-247 0 -444 -201 -444 -444c0 -245 199 -444 444 -444s444 199 444 444s-199 444 -444 444zM505 256h-233v30l250 390h82v-378h70l-7 -42h-63v-57
c0 -56 4 -65 59 -65v-35h-226v35c65 0 68 9 68 65v57zM462 509l-132 -211h175v212c0 21 1 48 3 71h-4c-10 -15 -22 -42 -42 -72z" />
    <glyph glyph-name="Japan1.7559" unicode="&#x2464;" 
d="M500 849c261 0 469 -212 469 -469c0 -259 -210 -469 -469 -469s-469 210 -469 469s210 469 469 469zM500 824c-247 0 -444 -201 -444 -444c0 -245 199 -444 444 -444s444 199 444 444s-199 444 -444 444zM340 384l39 281h211c35 0 41 2 47 14h33l-22 -80h-228l-26 -160h1
c27 20 62 32 112 32c145 0 183 -104 183 -180c0 -106 -55 -203 -205 -203c-106 0 -174 63 -174 115c0 31 20 44 39 44c15 0 30 -8 39 -26c34 -80 64 -97 99 -97c31 0 60 18 76 46c14 26 23 62 23 115c0 72 -17 149 -103 149c-45 0 -83 -25 -107 -60z" />
    <glyph glyph-name="Japan1.7560" unicode="&#x2465;" 
d="M500 849c261 0 469 -212 469 -469c0 -259 -210 -469 -469 -469s-469 210 -469 469s210 469 469 469zM500 824c-247 0 -444 -201 -444 -444c0 -245 199 -444 444 -444s444 199 444 444s-199 444 -444 444zM395 389h3c25 39 70 69 129 69c112 0 177 -78 177 -175
c0 -83 -40 -195 -201 -195c-122 0 -207 83 -207 286c0 96 21 181 66 236c35 42 81 66 151 66c110 0 163 -60 163 -109c0 -21 -11 -40 -34 -40c-28 0 -39 15 -52 47c-12 35 -34 66 -80 66c-111 0 -115 -203 -115 -251zM602 279c0 42 -16 139 -99 139
c-56 0 -103 -48 -103 -117c0 -93 33 -178 102 -178c53 0 100 43 100 156z" />
    <glyph glyph-name="Japan1.7561" unicode="&#x2466;" 
d="M500 849c261 0 469 -212 469 -469c0 -259 -210 -469 -469 -469s-469 210 -469 469s210 469 469 469zM500 824c-247 0 -444 -201 -444 -444c0 -245 199 -444 444 -444s444 199 444 444s-199 444 -444 444zM309 527l27 138h364l11 -19c-114 -145 -191 -342 -195 -555h-109
c3 87 24 179 62 266c41 90 93 174 150 242h-184c-58 0 -69 -8 -86 -72h-40z" />
    <glyph glyph-name="Japan1.7562" unicode="&#x2467;" 
d="M416 385v2c-56 30 -106 73 -106 150c0 76 62 139 189 139c84 0 189 -30 189 -133c0 -63 -47 -101 -116 -127v-2c95 -41 135 -109 135 -161c0 -63 -39 -165 -211 -165c-119 0 -203 54 -203 155c0 40 23 98 123 142zM498 640c-56 0 -96 -30 -96 -86s49 -92 117 -118
c34 17 77 42 77 109c0 30 -15 95 -98 95zM496 124c42 0 107 20 107 106c0 78 -97 115 -136 130c-59 -26 -82 -70 -82 -119c0 -78 50 -117 111 -117zM500 849c261 0 469 -212 469 -469c0 -259 -210 -469 -469 -469s-469 210 -469 469s210 469 469 469zM500 824
c-247 0 -444 -201 -444 -444c0 -245 199 -444 444 -444s444 199 444 444s-199 444 -444 444z" />
    <glyph glyph-name="Japan1.7563" unicode="&#x2468;" 
d="M500 849c261 0 469 -212 469 -469c0 -259 -210 -469 -469 -469s-469 210 -469 469s210 469 469 469zM500 824c-247 0 -444 -201 -444 -444c0 -245 199 -444 444 -444s444 199 444 444s-199 444 -444 444zM604 374l-3 1c-25 -41 -70 -68 -129 -68c-128 0 -177 93 -177 178
c0 89 50 191 201 191c116 0 208 -83 208 -274c0 -124 -28 -314 -219 -314c-119 0 -174 63 -174 110c0 23 13 40 36 40c28 0 38 -14 53 -46c14 -37 31 -68 86 -68c115 0 118 193 118 250zM397 486c0 -19 4 -140 99 -140c60 0 104 54 104 119c0 91 -34 175 -103 175
c-79 0 -100 -87 -100 -154z" />
    <glyph glyph-name="Japan1.7564" unicode="&#x2469;" 
d="M500 849c261 0 469 -212 469 -469c0 -259 -210 -469 -469 -469s-469 210 -469 469s210 469 469 469zM500 824c-247 0 -444 -201 -444 -444c0 -245 199 -444 444 -444s444 199 444 444s-199 444 -444 444zM653 99c-30 0 -73 6 -109 48c-39 44 -57 121 -57 237
c0 120 18 281 166 281c146 0 166 -155 166 -281c0 -116 -18 -193 -57 -237c-26 -31 -62 -48 -109 -48zM652 631c-16 0 -30 -6 -42 -25c-19 -29 -31 -92 -31 -223c0 -144 10 -250 73 -250c65 0 74 102 74 250c0 146 -10 248 -74 248zM204 560l-8 33c63 24 107 44 151 70
l12 -6v-450c0 -56 4 -63 70 -63v-34h-231v34c69 0 74 7 74 63v321c0 34 -2 47 -17 47c-13 0 -28 -5 -51 -15z" />
    <glyph glyph-name="Japan1.7565" unicode="&#x246a;" 
d="M500 849c261 0 469 -212 469 -469c0 -259 -210 -469 -469 -469s-469 210 -469 469s210 469 469 469zM500 824c-247 0 -444 -201 -444 -444c0 -245 199 -444 444 -444s444 199 444 444s-199 444 -444 444zM217 560l-9 33c64 24 108 44 152 70l11 -6v-450
c0 -56 5 -63 70 -63v-34h-230v34c69 0 74 7 74 63v321c0 34 -2 47 -17 47c-13 0 -29 -5 -51 -15zM573 560l-9 33c63 24 107 44 151 70l12 -6v-450c0 -56 4 -63 70 -63v-34h-231v34c69 0 74 7 74 63v321c0 34 -2 47 -17 47c-13 0 -28 -5 -50 -15z" />
    <glyph glyph-name="Japan1.7566" unicode="&#x246b;" 
d="M500 849c261 0 469 -212 469 -469c0 -259 -210 -469 -469 -469s-469 210 -469 469s210 469 469 469zM500 824c-247 0 -444 -201 -444 -444c0 -245 199 -444 444 -444s444 199 444 444s-199 444 -444 444zM802 238l-21 -128h-270l-13 13c20 149 110 242 150 283
c37 39 59 75 59 129c0 82 -41 96 -64 96c-42 0 -59 -38 -66 -79c-5 -27 -19 -36 -39 -36s-33 12 -33 41c0 36 35 108 142 108c108 0 152 -68 152 -137c0 -45 -21 -88 -50 -123c-33 -38 -76 -68 -114 -102c-37 -36 -64 -79 -78 -132h140c47 0 55 11 69 70zM202 560l-8 33
c63 24 107 44 151 70l12 -6v-450c0 -56 4 -63 70 -63v-34h-231v34c69 0 74 7 74 63v321c0 34 -2 47 -17 47c-13 0 -28 -5 -51 -15z" />
    <glyph glyph-name="Japan1.7567" unicode="&#x246c;" 
d="M500 849c261 0 469 -212 469 -469c0 -259 -210 -469 -469 -469s-469 210 -469 469s210 469 469 469zM500 824c-247 0 -444 -201 -444 -444c0 -245 199 -444 444 -444s444 199 444 444s-199 444 -444 444zM590 388v31c15 0 33 5 50 12c44 14 65 58 65 104
c0 57 -28 96 -62 96c-44 0 -56 -49 -61 -69c-6 -26 -13 -45 -43 -45c-22 0 -32 18 -32 43c0 46 55 105 140 105c128 0 148 -89 148 -135c0 -52 -35 -109 -124 -122v-2c53 -3 142 -38 142 -143c0 -76 -42 -164 -169 -164c-108 0 -147 68 -147 108c0 27 12 43 35 43
c14 0 23 -5 31 -18c7 -11 13 -30 21 -48c13 -29 30 -51 62 -51c66 0 75 85 75 124c0 77 -41 131 -131 131zM205 560l-9 33c63 24 107 44 151 70l12 -6v-450c0 -56 5 -63 70 -63v-34h-230v34c69 0 74 7 74 63v321c0 34 -3 47 -18 47c-12 0 -28 -5 -50 -15z" />
    <glyph glyph-name="Japan1.7568" unicode="&#x246d;" 
d="M500 849c261 0 469 -212 469 -469c0 -259 -210 -469 -469 -469s-469 210 -469 469s210 469 469 469zM500 824c-247 0 -444 -201 -444 -444c0 -245 199 -444 444 -444s444 199 444 444s-199 444 -444 444zM647 259h-178v27l193 375h73v-364h62l-6 -38h-56v-55
c0 -55 4 -63 54 -63v-31h-202v31c57 0 60 8 60 63v55zM617 499l-98 -202h128v208c0 18 1 45 2 62h-3c-4 -11 -16 -43 -29 -68zM202 560l-8 33c63 24 107 44 151 70l12 -6v-450c0 -56 4 -63 70 -63v-34h-231v34c69 0 74 7 74 63v321c0 34 -2 47 -17 47c-13 0 -28 -5 -51 -15z
" />
    <glyph glyph-name="Japan1.7569" unicode="&#x246e;" 
d="M500 849c261 0 469 -212 469 -469c0 -259 -210 -469 -469 -469s-469 210 -469 469s210 469 469 469zM500 824c-247 0 -444 -201 -444 -444c0 -245 199 -444 444 -444s444 199 444 444s-199 444 -444 444zM517 385l32 270h155c32 0 36 1 41 13h30l-18 -74h-170l-20 -153
l1 -1c17 16 44 28 81 28c73 0 142 -46 142 -173c0 -77 -27 -196 -164 -196c-84 0 -132 60 -132 104c0 31 18 44 36 44c12 0 24 -5 31 -20c25 -72 38 -94 69 -94c35 0 67 36 67 155c0 69 -10 144 -69 144c-30 0 -59 -21 -78 -55zM202 560l-8 33c63 24 107 44 151 70l12 -6
v-450c0 -56 4 -63 70 -63v-34h-231v34c69 0 74 7 74 63v321c0 34 -2 47 -17 47c-13 0 -28 -5 -51 -15z" />
    <glyph glyph-name="Japan1.7570" unicode="&#x246f;" 
d="M500 849c261 0 469 -212 469 -469c0 -259 -210 -469 -469 -469s-469 210 -469 469s210 469 469 469zM500 824c-247 0 -444 -201 -444 -444c0 -245 199 -444 444 -444s444 199 444 444s-199 444 -444 444zM583 394h2c16 31 48 59 94 59c89 0 137 -81 137 -167
c0 -102 -46 -187 -160 -187c-104 0 -164 84 -164 271c0 99 17 181 53 233c27 39 65 62 122 62c87 0 127 -59 127 -101c0 -22 -11 -40 -31 -40c-26 0 -35 13 -44 43c-6 29 -22 64 -54 64c-82 0 -82 -192 -82 -237zM724 280c0 42 -13 135 -70 135c-36 0 -69 -48 -69 -110
c0 -91 19 -173 71 -173c64 0 68 109 68 148zM202 560l-8 33c63 24 107 44 151 70l12 -6v-450c0 -56 4 -63 70 -63v-34h-231v34c69 0 74 7 74 63v321c0 34 -2 47 -17 47c-13 0 -28 -5 -51 -15z" />
    <glyph glyph-name="Japan1.7571" unicode="&#x2470;" 
d="M500 849c261 0 469 -212 469 -469c0 -259 -210 -469 -469 -469s-469 210 -469 469s210 469 469 469zM500 824c-247 0 -444 -201 -444 -444c0 -245 199 -444 444 -444s444 199 444 444s-199 444 -444 444zM199 560l-8 33c63 24 107 44 151 70l12 -6v-450
c0 -56 4 -63 70 -63v-34h-231v34c69 0 74 7 74 63v321c0 34 -2 47 -17 47c-13 0 -28 -5 -51 -15zM484 524l24 131h287l11 -18c-71 -109 -151 -296 -154 -535h-98c3 229 144 446 176 492h-130c-51 0 -63 -6 -78 -70h-38z" />
    <glyph glyph-name="Japan1.7572" unicode="&#x2471;" 
d="M582 382v2c-83 57 -86 118 -86 147c0 67 46 134 153 134c57 0 154 -20 154 -130c0 -61 -42 -99 -98 -123v-2c50 -27 111 -87 111 -154c0 -65 -36 -157 -168 -157c-108 0 -165 61 -165 149c0 45 29 100 99 134zM648 631c-34 0 -69 -25 -69 -85c0 -50 37 -92 84 -115
c38 27 56 54 56 107c0 51 -25 93 -71 93zM647 133c48 0 75 44 75 101c0 72 -70 112 -97 127c-41 -27 -58 -64 -58 -115c0 -78 40 -113 80 -113zM500 849c261 0 469 -212 469 -469c0 -259 -210 -469 -469 -469s-469 210 -469 469s210 469 469 469zM500 824
c-247 0 -444 -201 -444 -444c0 -245 199 -444 444 -444s444 199 444 444s-199 444 -444 444zM267 207v321c0 34 -2 47 -17 47c-13 0 -28 -5 -51 -15l-8 33c63 24 107 44 151 70l12 -6v-450c0 -56 4 -63 70 -63v-34h-231v34c69 0 74 7 74 63z" />
    <glyph glyph-name="Japan1.7573" unicode="&#x2472;" 
d="M500 849c261 0 469 -212 469 -469c0 -259 -210 -469 -469 -469s-469 210 -469 469s210 469 469 469zM500 824c-247 0 -444 -201 -444 -444c0 -245 199 -444 444 -444s444 199 444 444s-199 444 -444 444zM729 370h-2c-17 -31 -49 -59 -95 -59c-88 0 -138 77 -138 170
c0 116 63 184 161 184s165 -85 165 -261c0 -170 -41 -305 -176 -305c-101 0 -137 64 -137 103c0 23 11 39 32 39c27 0 36 -13 45 -42c7 -31 20 -66 60 -66c25 0 43 14 56 41c21 43 29 113 29 196zM587 483c0 -50 13 -134 69 -134c34 0 70 45 70 114c0 86 -21 168 -72 168
c-67 0 -67 -116 -67 -148zM269 207v321c0 34 -3 47 -18 47c-12 0 -28 -5 -50 -15l-9 33c63 24 107 44 151 70l12 -6v-450c0 -56 5 -63 70 -63v-34h-230v34c69 0 74 7 74 63z" />
    <glyph glyph-name="Japan1.7574" unicode="&#x2473;" 
d="M497 849c261 0 469 -212 469 -469c0 -259 -210 -469 -469 -469s-469 210 -469 469s210 469 469 469zM497 824c-247 0 -444 -201 -444 -444c0 -245 199 -444 444 -444s444 199 444 444s-199 444 -444 444zM691 99c-30 0 -73 6 -109 48c-39 44 -57 121 -57 237
c0 120 18 281 166 281c146 0 166 -155 166 -281c0 -116 -17 -193 -56 -237c-26 -31 -63 -48 -110 -48zM690 631c-15 0 -30 -6 -42 -25c-19 -29 -31 -92 -31 -223c0 -145 10 -250 74 -250s74 105 74 250s-11 248 -75 248zM474 238l-21 -128h-269l-13 13
c17 148 118 251 149 283c37 39 59 75 59 129c0 81 -39 96 -64 96c-42 0 -59 -38 -66 -79c-5 -27 -18 -36 -39 -36c-20 0 -32 12 -32 41c0 40 39 108 141 108c106 0 153 -65 153 -137c0 -45 -22 -88 -50 -123c-34 -38 -77 -68 -115 -102c-37 -36 -64 -79 -78 -132h140
c48 0 55 11 69 70z" />
    <glyph glyph-name="Japan1.7575" unicode="&#x2160;" 
d="M443 122v502c0 74 -6 82 -89 82v40h297v-40c-82 0 -88 -8 -88 -82v-502c0 -73 6 -82 89 -82v-40h-298v40c83 0 89 9 89 82z" />
    <glyph glyph-name="Japan1.7576" unicode="&#x2161;" 
d="M796 0h-590v40c82 0 89 9 89 82v502c0 74 -7 82 -89 82v40h590v-40c-83 0 -89 -8 -89 -82v-502c0 -73 6 -82 89 -82v-40zM415 624v-502c0 -81 7 -82 97 -82c71 0 75 13 75 82v502c0 70 -4 82 -75 82c-90 0 -97 -1 -97 -82z" />
    <glyph glyph-name="Japan1.7577" unicode="&#x2162;" 
d="M123 0v40c74 0 81 9 81 83v501c0 74 -7 82 -80 82v40h752v-40c-74 0 -79 -8 -79 -82v-501c0 -74 5 -83 80 -83v-40h-754zM440 123v501c0 67 -5 82 -56 82c-55 0 -60 -11 -60 -82v-501c0 -68 4 -83 56 -83c54 0 60 11 60 83zM677 123v501c0 67 -5 82 -56 82
c-55 0 -61 -9 -61 -82v-501c0 -68 4 -83 55 -83c56 0 62 8 62 83z" />
    <glyph glyph-name="Japan1.7578" unicode="&#x2163;" 
d="M67 746h472v-40c-40 0 -55 -8 -55 -30c0 -11 3 -25 9 -44l162 -492h2l152 490c7 20 10 35 10 46c0 25 -17 30 -54 30v40h173v-40c-39 0 -49 -9 -65 -57l-209 -664h-76l-220 650c-19 55 -30 71 -55 71c-42 0 -50 -16 -50 -82v-501c0 -74 7 -83 81 -83v-40h-277v40
c74 0 80 9 80 83v501c0 74 -6 82 -80 82v40z" />
    <glyph glyph-name="Japan1.7579" unicode="&#x2164;" 
d="M542 117l195 513c7 20 11 35 11 46c0 24 -19 30 -60 30v40h187v-40c-43 0 -53 -10 -71 -58l-254 -663h-80l-265 650c-25 62 -33 71 -80 71v40h262v-40c-45 0 -64 -8 -64 -31c0 -11 4 -25 11 -44l205 -514h3z" />
    <glyph glyph-name="Japan1.7580" unicode="&#x2165;" 
d="M934 40v-40h-293v40c82 0 89 9 89 82v502c0 63 -10 82 -43 82c-20 0 -30 -16 -43 -57l-209 -664h-76l-220 650c-22 63 -29 71 -73 71v40h244v-40c-40 0 -55 -8 -55 -29c0 -11 4 -26 10 -45l161 -492h3l151 490c7 20 10 35 10 46c0 25 -17 30 -54 30v40h397v-40
c-81 0 -87 -8 -87 -82v-502c0 -73 6 -82 88 -82z" />
    <glyph glyph-name="Japan1.7581" unicode="&#x2166;" 
d="M963 40v-40h-454v40c73 0 80 8 80 82v504c0 61 -7 78 -33 80c-18 0 -26 -15 -36 -57l-169 -664h-73l-180 651c-17 63 -24 70 -66 70v40h227v-40c-35 0 -47 -7 -47 -29c0 -11 3 -26 8 -46l122 -473h3l113 473c5 20 8 35 8 46c0 24 -14 29 -48 29v40h545v-40
c-58 0 -69 -8 -69 -82v-502c0 -74 11 -82 69 -82zM785 120v506c0 62 -8 80 -44 80c-35 0 -43 -16 -43 -80v-506c0 -62 7 -80 43 -80c35 0 44 18 44 80z" />
    <glyph glyph-name="Japan1.7582" unicode="&#x2167;" 
d="M31 706v40h207v-40c-32 0 -42 -7 -42 -29c0 -12 3 -27 7 -48l98 -446h3l92 448c4 20 6 34 6 45c0 26 -12 30 -43 30v40h614v-40c-50 0 -58 -8 -58 -81v-503c0 -74 8 -82 58 -82v-40h-546v40c66 0 69 8 69 81v508c0 55 -2 73 -22 77c-11 -5 -20 -27 -26 -56l-144 -665h-61
l-153 651c-15 62 -22 70 -59 70zM592 628v-509c0 -55 7 -79 33 -79s33 24 33 79v509c0 54 -7 78 -33 78c-27 0 -33 -24 -33 -78zM754 628v-509c0 -54 6 -79 31 -79c27 0 32 25 32 79v509c0 54 -6 78 -32 78c-25 0 -31 -24 -31 -78z" />
    <glyph glyph-name="Japan1.7583" unicode="&#x2168;" 
d="M493 0h-420v40c74 0 80 9 80 83v501c0 74 -6 82 -80 82v40h502v-40c-31 0 -45 -5 -45 -21c0 -12 8 -30 23 -58l93 -167h3l120 176c15 22 23 38 23 49c0 15 -16 21 -49 21v40h185v-40c-30 0 -39 -8 -76 -57l-173 -249l154 -275c45 -78 59 -85 103 -85v-40h-260v40
c32 0 47 5 47 21c0 13 -9 33 -26 63l-100 175h-3l-127 -189c-16 -23 -24 -39 -24 -49c0 -16 17 -21 50 -21v-40zM564 360l-148 273c-37 62 -49 73 -83 73c-56 0 -64 -13 -64 -82v-502c0 -65 10 -82 48 -82c19 0 33 15 65 58z" />
    <glyph glyph-name="Japan1.7584" unicode="&#x2169;" 
d="M476 312h-4l-173 -201c-22 -24 -32 -40 -32 -51c0 -15 22 -20 65 -20v-40h-228v40c35 0 52 10 94 58l241 267l-189 261c-56 74 -65 80 -121 80v40h298v-40c-41 0 -60 -4 -60 -21c0 -12 11 -31 34 -61l127 -176h3l164 185c21 23 31 39 31 51c0 16 -21 22 -63 22v40h221
v-40c-35 0 -47 -8 -93 -57l-226 -252l204 -270c61 -79 78 -87 127 -87v-40h-303v40c40 0 60 5 60 23c0 13 -12 33 -36 64z" />
    <glyph glyph-name="Japan1.8061" unicode="&#x1f100;" 
d="M499 742c159 0 273 -98 273 -375c0 -144 -29 -244 -85 -305c-50 -53 -113 -77 -188 -77c-46 0 -122 9 -185 77c-57 61 -86 161 -86 305c0 299 134 375 271 375zM499 698c-44 0 -74 -21 -93 -43c-32 -43 -56 -127 -56 -289c0 -204 31 -337 150 -337c121 0 149 143 149 337
c0 162 -24 246 -56 289c-28 32 -62 43 -94 43zM893 -15c-45 0 -77 36 -77 77c0 42 34 76 77 76c42 0 76 -34 76 -76c0 -43 -34 -77 -76 -77z" />
    <glyph glyph-name="Japan1.8062" unicode="&#x2488;" 
d="M348 607l-7 40c90 31 147 56 205 90l15 -8v-605c0 -75 6 -84 96 -84v-40h-314v40c95 0 101 9 101 84v439c0 44 -5 63 -26 63c-19 0 -39 -8 -70 -19zM893 -15c-45 0 -77 36 -77 77c0 42 34 76 77 76c42 0 76 -34 76 -76c0 -43 -34 -77 -76 -77z" />
    <glyph glyph-name="Japan1.8063" unicode="&#x2489;" 
d="M750 175l-31 -175h-453l-17 17c48 227 161 310 251 373c78 54 120 101 120 178c0 80 -45 129 -125 129c-86 0 -113 -59 -129 -111c-10 -35 -27 -46 -57 -46c-25 0 -42 18 -42 52c0 62 75 150 233 150c175 0 244 -90 244 -184c0 -78 -55 -134 -107 -178
c-65 -51 -129 -86 -181 -126c-61 -44 -99 -99 -123 -172h268c71 0 81 14 104 99zM893 -15c-45 0 -77 36 -77 77c0 42 34 76 77 76c42 0 76 -34 76 -76c0 -43 -34 -77 -76 -77z" />
    <glyph glyph-name="Japan1.8064" unicode="&#x248a;" 
d="M410 368v43c46 0 197 17 197 155c0 80 -51 128 -121 128c-60 0 -102 -40 -120 -95c-14 -37 -25 -60 -65 -60c-27 0 -41 21 -41 53c0 57 79 147 230 147c67 0 120 -12 160 -36c48 -31 76 -80 76 -141c0 -89 -70 -151 -188 -166v-3c117 -7 218 -71 218 -193
c0 -110 -81 -217 -269 -217c-170 0 -243 92 -243 153c0 32 15 52 45 52c20 0 33 -7 47 -28c13 -18 25 -43 45 -68c23 -36 53 -64 108 -64c79 0 144 48 144 168c0 134 -109 172 -223 172zM893 -15c-45 0 -77 36 -77 77c0 42 34 76 77 76c42 0 76 -34 76 -76
c0 -43 -34 -77 -76 -77z" />
    <glyph glyph-name="Japan1.8065" unicode="&#x248b;" 
d="M545 199h-300v36l321 503h98v-487h91l-8 -52h-83v-75c0 -73 5 -84 77 -84v-40h-284v40c84 0 88 12 88 84v75zM488 526l-171 -275h228v276c0 27 1 62 3 93h-5c-14 -21 -29 -56 -55 -94zM893 -15c-45 0 -77 36 -77 77c0 42 34 76 77 76c42 0 76 -34 76 -76
c0 -43 -34 -77 -76 -77z" />
    <glyph glyph-name="Japan1.8066" unicode="&#x248c;" 
d="M299 366l50 363h274c45 0 51 2 59 17h40l-26 -100h-300l-35 -211l2 -1c39 29 85 45 149 45c168 0 236 -111 236 -233c0 -188 -122 -261 -262 -261c-134 0 -226 82 -226 149c0 37 24 54 48 54c20 0 35 -7 50 -34c12 -29 28 -58 52 -88c18 -21 43 -35 79 -35
c95 0 135 93 135 208c0 78 -18 193 -139 193c-61 0 -111 -32 -143 -78zM893 -15c-45 0 -77 36 -77 77c0 42 34 76 77 76c42 0 76 -34 76 -76c0 -43 -34 -77 -76 -77z" />
    <glyph glyph-name="Japan1.8067" unicode="&#x248d;" 
d="M358 375l4 -1c34 54 93 93 171 93c148 0 228 -104 228 -225c0 -130 -71 -252 -257 -252c-154 0 -266 106 -266 368c0 182 61 389 278 389c137 0 211 -77 211 -140c0 -27 -15 -50 -42 -50c-34 0 -48 19 -65 60c-23 64 -62 84 -108 84c-108 0 -154 -148 -154 -326zM639 236
c0 45 -18 181 -134 181c-76 0 -141 -65 -141 -153c0 -118 46 -230 138 -230c93 0 137 94 137 202zM893 -15c-45 0 -77 36 -77 77c0 42 34 76 77 76c42 0 76 -34 76 -76c0 -43 -34 -77 -76 -77z" />
    <glyph glyph-name="Japan1.8068" unicode="&#x248e;" 
d="M245 559l35 175h461l14 -24c-68 -87 -145 -208 -196 -380c-32 -98 -55 -210 -57 -335h-130c3 111 29 230 79 343c50 116 116 225 189 313h-238c-74 0 -86 -9 -107 -92h-50zM893 -15c-45 0 -77 36 -77 77c0 42 34 76 77 76c42 0 76 -34 76 -76c0 -43 -34 -77 -76 -77z" />
    <glyph glyph-name="Japan1.8069" unicode="&#x248f;" 
d="M591 412v-3c115 -51 174 -131 174 -206c0 -116 -83 -213 -269 -213c-149 0 -262 69 -262 200c0 63 45 136 161 183v3c-86 44 -138 110 -138 192c0 92 74 179 242 179c136 0 241 -57 241 -172c0 -81 -65 -133 -149 -163zM497 701c-93 0 -129 -54 -129 -112
c0 -78 76 -123 156 -153c78 37 104 74 104 141c0 65 -34 124 -131 124zM496 35c62 0 144 34 144 139c0 104 -134 153 -182 170c-68 -30 -112 -81 -112 -156c0 -94 63 -153 150 -153zM893 -15c-45 0 -77 36 -77 77c0 42 34 76 77 76c42 0 76 -34 76 -76
c0 -43 -34 -77 -76 -77z" />
    <glyph glyph-name="Japan1.8070" unicode="&#x2490;" 
d="M641 362h-3c-35 -55 -94 -91 -171 -91c-138 0 -229 90 -229 230c0 139 86 246 258 246c145 0 266 -105 266 -354c0 -270 -104 -403 -282 -403c-149 0 -222 80 -222 142c0 28 15 49 43 49c35 0 47 -17 66 -59c17 -37 40 -87 114 -87c155 0 161 248 160 327zM361 504
c0 -49 13 -183 134 -183c78 0 141 69 141 156c0 114 -48 225 -139 225c-77 0 -136 -63 -136 -198zM893 -15c-45 0 -77 36 -77 77c0 42 34 76 77 76c42 0 76 -34 76 -76c0 -43 -34 -77 -76 -77z" />
    <glyph glyph-name="Japan1.8071" unicode="&#x2474;" 
d="M207 -79l-20 -13c-94 101 -156 243 -156 472c0 217 55 364 156 472l20 -13c-73 -111 -108 -230 -108 -459s35 -348 108 -459zM793 839l20 13c94 -101 156 -243 156 -472c0 -217 -55 -364 -156 -472l-20 13c73 111 108 230 108 459s-35 348 -108 459zM356 614l-7 38
c86 29 138 54 194 86l14 -8v-581c0 -71 6 -80 92 -80v-38h-298v38c91 0 97 9 97 80v423c0 42 -6 60 -25 60s-38 -8 -67 -18z" />
    <glyph glyph-name="Japan1.8072" unicode="&#x2475;" 
d="M207 -79l-20 -13c-94 101 -156 243 -156 472c0 217 55 364 156 472l20 -13c-73 -111 -108 -230 -108 -459s35 -348 108 -459zM793 839l20 13c94 -101 156 -243 156 -472c0 -217 -55 -364 -156 -472l-20 13c73 111 108 230 108 459s-35 348 -108 459zM275 31l-17 16
c45 208 141 289 242 359c74 51 115 97 115 171s-38 123 -120 123c-54 0 -100 -22 -124 -107c-10 -33 -26 -43 -54 -43c-25 0 -41 16 -41 49c0 56 67 144 224 144c178 0 231 -95 231 -177c0 -74 -53 -128 -101 -171c-62 -48 -124 -82 -173 -120c-58 -43 -95 -95 -118 -166
h258c67 0 78 14 99 95l45 -5l-31 -168h-435z" />
    <glyph glyph-name="Japan1.8073" unicode="&#x2476;" 
d="M207 -79l-20 -13c-94 101 -156 243 -156 472c0 217 55 364 156 472l20 -13c-73 -111 -108 -230 -108 -459s35 -348 108 -459zM793 839l20 13c94 -101 156 -243 156 -472c0 -217 -55 -364 -156 -472l-20 13c73 111 108 230 108 459s-35 348 -108 459zM414 386v41
c95 3 190 41 190 149c0 82 -54 124 -116 124c-60 0 -99 -42 -116 -91c-13 -36 -23 -58 -61 -58c-27 0 -41 20 -41 50c0 58 81 142 220 142c209 0 226 -127 226 -171c0 -90 -75 -148 -179 -159v-2c99 -7 207 -61 207 -186c0 -105 -77 -209 -255 -209c-158 0 -234 86 -234 147
c0 31 15 50 43 50c19 0 32 -6 45 -26c13 -18 25 -42 44 -66c22 -35 51 -61 104 -61c66 0 139 41 139 161c0 115 -89 165 -216 165z" />
    <glyph glyph-name="Japan1.8074" unicode="&#x2477;" 
d="M542 222h-287v35l308 482h89v-467h87l-8 -50h-79v-73c0 -69 5 -80 73 -80v-38h-268v38c81 0 85 12 85 80v73zM488 536l-164 -264h218v265c0 26 1 59 3 89h-4c-13 -19 -28 -54 -53 -90zM207 -79l-20 -13c-94 101 -156 243 -156 472c0 217 55 364 156 472l20 -13
c-73 -111 -108 -230 -108 -459s35 -348 108 -459zM793 839l20 13c94 -101 156 -243 156 -472c0 -217 -55 -364 -156 -472l-20 13c73 111 108 230 108 459s-35 348 -108 459z" />
    <glyph glyph-name="Japan1.8075" unicode="&#x2478;" 
d="M207 -79l-20 -13c-94 101 -156 243 -156 472c0 217 55 364 156 472l20 -13c-73 -111 -108 -230 -108 -459s35 -348 108 -459zM793 839l20 13c94 -101 156 -243 156 -472c0 -217 -55 -364 -156 -472l-20 13c73 111 108 230 108 459s-35 348 -108 459zM305 383l48 347h264
c43 0 48 2 56 18h39l-25 -97h-289l-33 -202l2 -1c37 27 80 43 142 43c156 0 224 -104 224 -223c0 -155 -88 -252 -248 -252c-124 0 -216 73 -216 143c0 36 22 53 45 53c19 0 33 -8 48 -33c35 -81 68 -119 126 -119c100 0 129 105 129 200c0 84 -21 185 -133 185
c-59 0 -107 -30 -138 -75z" />
    <glyph glyph-name="Japan1.8076" unicode="&#x2479;" 
d="M363 391l4 -1c32 51 88 89 163 89c139 0 217 -95 217 -217c0 -121 -66 -241 -244 -241c-146 0 -252 101 -252 354c0 118 26 224 81 292c41 50 99 81 182 81c137 0 203 -75 203 -135c0 -26 -14 -47 -40 -47c-33 0 -46 18 -62 57c-17 46 -49 82 -104 82
c-93 0 -148 -119 -148 -314zM632 257c0 21 -5 174 -128 174c-79 0 -135 -68 -135 -147c0 -113 44 -220 132 -220c72 0 131 61 131 193zM207 -79l-20 -13c-94 101 -156 243 -156 472c0 217 55 364 156 472l20 -13c-73 -111 -108 -230 -108 -459s35 -348 108 -459zM793 839
l20 13c94 -101 156 -243 156 -472c0 -217 -55 -364 -156 -472l-20 13c73 111 108 230 108 459s-35 348 -108 459z" />
    <glyph glyph-name="Japan1.8077" unicode="&#x247a;" 
d="M207 -79l-20 -13c-94 101 -156 243 -156 472c0 217 55 364 156 472l20 -13c-73 -111 -108 -230 -108 -459s35 -348 108 -459zM793 839l20 13c94 -101 156 -243 156 -472c0 -217 -55 -364 -156 -472l-20 13c73 111 108 230 108 459s-35 348 -108 459zM256 568l33 167h443
l13 -22c-64 -84 -139 -200 -188 -366c-31 -94 -53 -200 -55 -321h-121c2 107 27 220 74 330c48 110 110 215 180 300h-229c-70 0 -83 -8 -103 -88h-47z" />
    <glyph glyph-name="Japan1.8078" unicode="&#x247b;" 
d="M399 389v3c-103 54 -130 125 -130 184c0 87 67 172 229 172c148 0 229 -68 229 -165c0 -79 -57 -126 -140 -156v-3c113 -51 163 -131 163 -198c0 -127 -96 -205 -255 -205c-140 0 -248 67 -248 192c0 53 34 128 152 176zM496 704c-117 0 -124 -88 -124 -107
c0 -82 82 -121 150 -147c63 29 101 62 101 135c0 75 -48 119 -127 119zM495 65c89 0 139 56 139 133c0 96 -118 141 -175 163c-57 -25 -108 -69 -108 -150c0 -75 47 -146 144 -146zM207 -79l-20 -13c-94 101 -156 243 -156 472c0 217 55 364 156 472l20 -13
c-73 -111 -108 -230 -108 -459s35 -348 108 -459zM793 839l20 13c94 -101 156 -243 156 -472c0 -217 -55 -364 -156 -472l-20 13c73 111 108 230 108 459s-35 348 -108 459z" />
    <glyph glyph-name="Japan1.8079" unicode="&#x247c;" 
d="M634 379h-3c-33 -53 -89 -88 -162 -88c-145 0 -219 99 -219 221c0 130 79 236 244 236c144 0 254 -107 254 -339c0 -195 -59 -388 -268 -388c-141 0 -213 75 -213 137c0 27 14 47 41 47c33 0 45 -16 64 -57c17 -47 46 -83 109 -83c43 0 78 20 102 58c35 56 52 145 51 256
zM496 705c-88 0 -131 -85 -131 -190c0 -33 7 -177 129 -177c73 0 135 64 135 150c0 111 -45 217 -133 217zM207 -79l-20 -13c-94 101 -156 243 -156 472c0 217 55 364 156 472l20 -13c-73 -111 -108 -230 -108 -459s35 -348 108 -459zM793 839l20 13
c94 -101 156 -243 156 -472c0 -217 -55 -364 -156 -472l-20 13c73 111 108 230 108 459s-35 348 -108 459z" />
    <glyph glyph-name="Japan1.8080" unicode="&#x247d;" 
d="M634 17c-157 0 -170 218 -170 367c0 154 16 360 170 360c153 0 170 -197 170 -360c0 -159 -14 -367 -170 -367zM634 705c-62 0 -70 -148 -70 -322c0 -181 11 -327 70 -327c61 0 71 145 71 327c0 172 -13 254 -31 292c-11 23 -24 30 -40 30zM207 -79l-20 -13
c-94 101 -156 243 -156 472c0 217 55 364 156 472l20 -13c-73 -111 -108 -230 -108 -459s35 -348 108 -459zM793 839l20 13c94 -101 156 -243 156 -472c0 -217 -55 -364 -156 -472l-20 13c73 111 108 230 108 459s-35 348 -108 459zM206 619l-8 33c57 26 111 55 156 86
l13 -7v-587c0 -71 5 -79 67 -79v-33h-230v33c64 0 69 8 69 79v437c0 42 -4 58 -20 58c-10 0 -29 -10 -47 -20z" />
    <glyph glyph-name="Japan1.8081" unicode="&#x247e;" 
d="M207 -79l-20 -13c-94 101 -156 243 -156 472c0 217 55 364 156 472l20 -13c-73 -111 -108 -230 -108 -459s35 -348 108 -459zM793 839l20 13c94 -101 156 -243 156 -472c0 -217 -55 -364 -156 -472l-20 13c73 111 108 230 108 459s-35 348 -108 459zM224 619l-7 33
c56 26 110 55 155 86l14 -7v-587c0 -71 4 -79 66 -79v-33h-230v33c64 0 69 8 69 79v437c0 42 -4 58 -20 58c-10 0 -29 -10 -47 -20zM558 619l-7 33c57 26 110 55 156 86l13 -7v-587c0 -71 5 -79 67 -79v-33h-230v33c64 0 69 8 69 79v437c0 42 -4 58 -20 58
c-10 0 -29 -10 -48 -20z" />
    <glyph glyph-name="Japan1.8082" unicode="&#x247f;" 
d="M799 181l-22 -149h-279l-11 12c7 64 24 128 65 212c28 56 62 103 95 155c31 49 49 98 49 164c0 52 -6 84 -20 105c-10 15 -24 24 -40 24c-51 0 -59 -59 -65 -100c-6 -35 -23 -45 -45 -45c-21 0 -35 14 -35 51c0 38 34 134 149 134c98 0 157 -72 157 -176
c0 -53 -18 -109 -48 -158c-32 -48 -78 -89 -117 -137c-41 -50 -73 -110 -84 -174h141c51 0 58 14 75 86zM206 619l-8 33c57 26 111 55 156 86l13 -7v-587c0 -71 5 -79 67 -79v-33h-230v33c64 0 69 8 69 79v437c0 42 -4 58 -20 58c-10 0 -29 -10 -47 -20zM207 -79l-20 -13
c-94 101 -156 243 -156 472c0 217 55 364 156 472l20 -13c-73 -111 -108 -230 -108 -459s35 -348 108 -459zM793 839l20 13c94 -101 156 -243 156 -472c0 -217 -55 -364 -156 -472l-20 13c73 111 108 230 108 459s-35 348 -108 459z" />
    <glyph glyph-name="Japan1.8083" unicode="&#x2480;" 
d="M207 -79l-20 -13c-94 101 -156 243 -156 472c0 217 55 364 156 472l20 -13c-73 -111 -108 -230 -108 -459s35 -348 108 -459zM793 839l20 13c94 -101 156 -243 156 -472c0 -217 -55 -364 -156 -472l-20 13c73 111 108 230 108 459s-35 348 -108 459zM570 393v35
c12 0 30 4 49 14c50 21 66 81 66 137c0 51 -14 125 -61 125s-54 -49 -61 -91c-6 -32 -14 -52 -45 -52c-23 0 -33 19 -33 54c0 52 55 129 144 129c94 0 153 -61 153 -172c0 -97 -69 -146 -130 -155v-3c41 -4 151 -39 151 -186c0 -79 -33 -211 -177 -211
c-106 0 -152 81 -152 133c0 35 12 54 37 54c31 0 37 -24 49 -78c8 -39 29 -69 65 -69c34 0 78 37 78 165c0 39 -5 72 -17 99c-30 65 -94 72 -116 72zM204 619l-7 33c57 26 110 55 156 86l13 -7v-587c0 -71 4 -79 66 -79v-33h-230v33c64 0 69 8 69 79v437c0 42 -4 58 -20 58
c-10 0 -28 -10 -47 -20z" />
    <glyph glyph-name="Japan1.8084" unicode="&#x2481;" 
d="M650 224h-186v31l207 486h74v-472h57l-4 -45h-53v-80c0 -70 4 -79 51 -79v-33h-206v33c56 0 60 9 60 79v80zM623 530l-107 -261h134v263c0 25 3 62 5 80h-2c-4 -12 -17 -51 -30 -82zM207 -79l-20 -13c-94 101 -156 243 -156 472c0 217 55 364 156 472l20 -13
c-73 -111 -108 -230 -108 -459s35 -348 108 -459zM793 839l20 13c94 -101 156 -243 156 -472c0 -217 -55 -364 -156 -472l-20 13c73 111 108 230 108 459s-35 348 -108 459zM206 619l-8 33c57 26 111 55 156 86l13 -7v-587c0 -71 5 -79 67 -79v-33h-230v33c64 0 69 8 69 79
v437c0 42 -4 58 -20 58c-10 0 -29 -10 -47 -20z" />
    <glyph glyph-name="Japan1.8085" unicode="&#x2482;" 
d="M207 -79l-20 -13c-94 101 -156 243 -156 472c0 217 55 364 156 472l20 -13c-73 -111 -108 -230 -108 -459s35 -348 108 -459zM793 839l20 13c94 -101 156 -243 156 -472c0 -217 -55 -364 -156 -472l-20 13c73 111 108 230 108 459s-35 348 -108 459zM511 384l35 347h160
c35 0 40 2 46 18h32l-20 -86h-176l-25 -208l1 -1c18 20 49 36 87 36c113 0 149 -111 149 -221c0 -137 -54 -252 -174 -252c-86 0 -139 70 -139 128c0 39 21 54 40 54c15 0 28 -7 34 -25c7 -26 9 -52 19 -81c8 -23 25 -36 47 -36c60 0 73 114 73 202c0 79 -8 188 -72 188
c-29 0 -60 -26 -82 -72zM206 619l-8 33c57 26 111 55 156 86l13 -7v-587c0 -71 5 -79 67 -79v-33h-230v33c64 0 69 8 69 79v437c0 42 -4 58 -20 58c-10 0 -29 -10 -47 -20z" />
    <glyph glyph-name="Japan1.8086" unicode="&#x2483;" 
d="M566 404h2c17 35 48 66 92 66c87 0 145 -95 145 -216c0 -86 -24 -237 -166 -237c-113 0 -171 110 -171 344c0 134 18 240 57 306c29 50 69 77 127 77c84 0 132 -69 132 -125c0 -28 -12 -49 -34 -49c-27 0 -37 14 -44 50c-4 21 -16 84 -55 84c-86 0 -86 -241 -85 -300z
M705 249c0 48 -10 177 -68 177c-33 0 -69 -67 -69 -147c0 -110 18 -223 71 -223c62 0 66 129 66 193zM207 -79l-20 -13c-94 101 -156 243 -156 472c0 217 55 364 156 472l20 -13c-73 -111 -108 -230 -108 -459s35 -348 108 -459zM793 839l20 13c94 -101 156 -243 156 -472
c0 -217 -55 -364 -156 -472l-20 13c73 111 108 230 108 459s-35 348 -108 459zM204 619l-7 33c57 26 110 55 156 86l13 -7v-587c0 -71 4 -79 66 -79v-33h-230v33c64 0 69 8 69 79v437c0 42 -4 58 -20 58c-10 0 -29 -10 -47 -20z" />
    <glyph glyph-name="Japan1.8087" unicode="&#x2484;" 
d="M207 -79l-20 -13c-94 101 -156 243 -156 472c0 217 55 364 156 472l20 -13c-73 -111 -108 -230 -108 -459s35 -348 108 -459zM793 839l20 13c94 -101 156 -243 156 -472c0 -217 -55 -364 -156 -472l-20 13c73 111 108 230 108 459s-35 348 -108 459zM206 619l-8 33
c57 26 111 55 156 86l13 -7v-587c0 -71 5 -79 67 -79v-33h-230v33c64 0 69 8 69 79v437c0 42 -4 58 -20 58c-10 0 -29 -10 -47 -20zM471 574l27 157h300l10 -19c-44 -79 -96 -216 -132 -389c-18 -94 -28 -191 -28 -296h-106c0 184 70 416 190 636h-136c-55 0 -68 -8 -86 -89
h-39z" />
    <glyph glyph-name="Japan1.8088" unicode="&#x2485;" 
d="M571 385v2c-34 29 -92 79 -92 188c0 79 46 169 157 169c80 0 156 -41 156 -167c0 -77 -39 -122 -103 -163v-2c27 -17 117 -87 117 -197c0 -76 -32 -198 -169 -198c-101 0 -172 71 -172 194c0 34 14 118 106 174zM636 704c-41 0 -67 -44 -67 -113c0 -63 26 -114 77 -147
c37 34 57 67 57 140c0 36 -10 120 -67 120zM634 57c34 0 71 42 71 135c0 94 -61 141 -91 164c-44 -38 -58 -94 -58 -150c0 -100 40 -149 78 -149zM207 -79l-20 -13c-94 101 -156 243 -156 472c0 217 55 364 156 472l20 -13c-73 -111 -108 -230 -108 -459s35 -348 108 -459z
M793 839l20 13c94 -101 156 -243 156 -472c0 -217 -55 -364 -156 -472l-20 13c73 111 108 230 108 459s-35 348 -108 459zM203 619l-7 33c57 26 110 55 156 86l13 -7v-587c0 -71 4 -79 67 -79v-33h-231v33c65 0 70 8 70 79v437c0 42 -4 58 -20 58c-10 0 -29 -10 -48 -20z
" />
    <glyph glyph-name="Japan1.8089" unicode="&#x2486;" 
d="M706 357h-2c-17 -35 -50 -66 -93 -66c-87 0 -145 91 -145 216c0 131 48 237 166 237c112 0 172 -110 172 -343c0 -134 -18 -240 -57 -306c-28 -50 -69 -78 -128 -78c-90 0 -135 73 -135 127c0 28 11 48 33 48c28 0 38 -14 45 -49c1 -7 15 -86 58 -86c89 0 86 265 86 300z
M566 512c0 -13 0 -176 68 -176c30 0 69 60 69 150c0 106 -19 219 -72 219c-65 0 -65 -150 -65 -193zM207 -79l-20 -13c-94 101 -156 243 -156 472c0 217 55 364 156 472l20 -13c-73 -111 -108 -230 -108 -459s35 -348 108 -459zM793 839l20 13c94 -101 156 -243 156 -472
c0 -217 -55 -364 -156 -472l-20 13c73 111 108 230 108 459s-35 348 -108 459zM201 619l-7 33c57 26 110 55 156 86l13 -7v-587c0 -71 5 -79 67 -79v-33h-230v33c64 0 69 8 69 79v437c0 42 -4 58 -19 58c-11 0 -29 -10 -49 -20z" />
    <glyph glyph-name="Japan1.8090" unicode="&#x2487;" 
d="M673 17c-144 0 -150 236 -150 367s8 360 150 360c136 0 149 -201 149 -360c0 -134 -5 -367 -149 -367zM673 705h-1c-57 0 -60 -148 -60 -322c0 -181 6 -327 60 -327c15 0 25 5 36 31c15 37 27 116 27 296c0 169 -6 322 -62 322zM207 -79l-20 -13
c-94 101 -156 243 -156 472c0 217 55 364 156 472l20 -13c-73 -111 -108 -230 -108 -459s35 -348 108 -459zM793 839l20 13c94 -101 156 -243 156 -472c0 -217 -55 -364 -156 -472l-20 13c73 111 108 230 108 459s-35 348 -108 459zM199 32l-10 12c5 64 20 128 56 212
c24 56 52 101 82 155c30 52 52 107 52 164c0 47 -4 129 -57 129c-31 0 -47 -19 -56 -101c-4 -34 -17 -44 -40 -44c-18 0 -32 14 -32 52c0 43 34 133 135 133c48 0 144 -25 144 -166c0 -53 -26 -118 -54 -165c-30 -48 -63 -81 -99 -137c-33 -53 -68 -126 -76 -177h125
c47 0 56 15 73 86l32 -4l-21 -149h-254z" />
    <glyph glyph-name="Japan1.8091" unicode="&#x3251;" 
d="M500 849c261 0 469 -212 469 -469c0 -259 -210 -469 -469 -469s-469 210 -469 469s210 469 469 469zM500 824c-247 0 -444 -201 -444 -444c0 -245 199 -444 444 -444s444 199 444 444s-199 444 -444 444zM486 238l-20 -128h-270l-13 13c20 149 110 242 150 283
c37 39 59 75 59 129c0 79 -38 96 -65 96c-45 0 -60 -45 -65 -79c-5 -27 -19 -36 -40 -36c-19 0 -32 12 -32 41c0 34 33 108 142 108c108 0 152 -68 152 -137c0 -45 -21 -88 -50 -123c-33 -38 -77 -68 -114 -102c-38 -36 -65 -79 -78 -132h140c47 0 55 11 69 70zM588 560
l-9 33c63 24 107 44 151 70l12 -6v-450c0 -56 5 -63 70 -63v-34h-230v34c69 0 73 7 73 63v321c0 34 -2 47 -17 47c-12 0 -28 -5 -50 -15z" />
    <glyph glyph-name="Japan1.8092" unicode="&#x2170;" 
d="M509 758c40 0 67 -32 67 -75c0 -46 -30 -76 -67 -76s-67 30 -67 76c0 45 30 75 67 75zM571 546v-433c0 -70 6 -78 68 -78v-35h-252v35c67 0 72 8 72 79v284c0 70 -3 74 -72 74v33c62 6 113 21 172 48z" />
    <glyph glyph-name="Japan1.8093" unicode="&#x2171;" 
d="M363 758c41 0 67 -33 67 -75c0 -46 -29 -76 -67 -76c-36 0 -66 30 -66 76c0 45 30 75 66 75zM658 758c41 0 68 -32 68 -75c0 -46 -30 -76 -68 -76c-36 0 -66 30 -66 76c0 45 30 75 66 75zM426 546v-433c0 -70 5 -78 68 -78v-35h-253v35c67 0 72 8 72 79v282
c0 70 -3 74 -72 74v35c62 6 114 21 172 48zM721 546v-433c0 -70 5 -78 68 -78v-35h-253v35c68 0 72 8 72 79v282c0 70 -3 74 -72 74v35c62 6 114 21 172 48z" />
    <glyph glyph-name="Japan1.8094" unicode="&#x2172;" 
d="M284 607c-39 0 -65 32 -65 75c0 45 29 74 65 74c39 0 65 -32 65 -74c0 -45 -29 -75 -65 -75zM506 607c-39 0 -65 32 -65 75c0 45 29 74 65 74c39 0 65 -32 65 -74c0 -45 -29 -75 -65 -75zM728 607c-39 0 -64 33 -64 75c0 45 28 74 64 74c40 0 66 -32 66 -74
c0 -45 -29 -75 -66 -75zM848 35v-35h-678v35c59 0 64 8 64 79v283c0 71 -4 73 -64 73v35c56 6 104 21 160 48l13 -7v-434c0 -67 6 -77 55 -77c54 0 58 10 58 78v284c0 71 -3 73 -64 73v35c57 6 105 21 160 48l14 -7v-434c0 -67 4 -77 54 -77c53 0 59 10 59 78v284
c0 71 -4 73 -64 73v35c56 6 104 21 160 48l13 -7v-433c0 -70 5 -78 60 -78z" />
    <glyph glyph-name="Japan1.8095" unicode="&#x2173;" 
d="M249 756c39 0 65 -32 65 -74c0 -45 -29 -75 -65 -75s-65 30 -65 75s29 74 65 74zM308 546v-435c0 -69 6 -77 60 -77v-34h-233v34c59 0 64 8 64 78v285c0 71 -4 73 -64 73v35c57 6 104 21 160 48zM651 -13h-48l-170 413c-26 65 -34 70 -67 70v35h220v-35
c-32 0 -45 -4 -45 -20c0 -8 4 -20 10 -37l104 -286h3l109 302c4 10 6 18 6 24c0 13 -10 17 -41 17v35h142v-35c-28 0 -37 -5 -55 -51z" />
    <glyph glyph-name="Japan1.8096" unicode="&#x2174;" 
d="M531 -13h-46l-204 414c-33 64 -41 69 -81 69v35h243v-35c-37 0 -52 -4 -52 -21c0 -8 4 -19 11 -35l136 -301h2l141 316c5 10 8 18 8 24c0 13 -13 17 -48 17v35h159v-35c-34 0 -43 -5 -65 -51z" />
    <glyph glyph-name="Japan1.8097" unicode="&#x2175;" 
d="M754 607c-39 0 -65 32 -65 75c0 45 29 74 65 74c39 0 65 -32 65 -74c0 -45 -29 -75 -65 -75zM873 35v-35h-232v35c58 0 64 8 64 79v286c0 66 -4 70 -56 70c-29 0 -37 -5 -57 -51l-177 -432h-48l-179 413c-28 65 -36 70 -71 70v35h227v-35c-34 0 -47 -4 -47 -20
c0 -9 4 -21 10 -37l113 -290h2l117 306c4 10 7 18 7 24c0 13 -11 17 -43 17v35h140c54 6 102 21 158 48l12 -7v-433c0 -70 6 -78 60 -78z" />
    <glyph glyph-name="Japan1.8098" unicode="&#x2176;" 
d="M626 610c-38 0 -63 31 -63 71c0 44 28 73 63 73c39 0 64 -32 64 -73c0 -43 -28 -71 -64 -71zM839 610c-38 0 -63 31 -63 71c0 44 28 73 63 73c39 0 64 -32 64 -73c0 -43 -28 -71 -64 -71zM958 35v-35h-444v35c59 0 64 8 64 79v285c0 61 -5 71 -42 71
c-26 0 -36 -10 -52 -51l-162 -432h-49l-165 413c-26 65 -35 70 -66 70v35h217v-35c-32 0 -44 -4 -44 -20c0 -8 4 -20 10 -37l100 -284h2l104 300c4 11 7 19 7 25c0 12 -11 16 -40 16v35h116c57 6 102 21 158 47l13 -6v-434c0 -64 6 -77 46 -77c53 0 60 6 60 78v284
c0 71 -4 73 -64 73v35c56 6 102 20 158 47l13 -6v-433c0 -70 5 -78 60 -78z" />
    <glyph glyph-name="Japan1.8099" unicode="&#x2177;" 
d="M519 611c-35 0 -56 30 -56 69c0 41 24 68 56 68c36 0 57 -30 57 -68c0 -42 -24 -69 -57 -69zM687 611c-35 0 -56 30 -56 69c0 41 24 68 56 68c36 0 57 -30 57 -68c0 -42 -24 -69 -57 -69zM855 611c-35 0 -56 30 -56 69c0 41 24 68 56 68c36 0 57 -30 57 -68
c0 -42 -24 -69 -57 -69zM968 0h-556v35c59 0 66 8 66 77v291c0 57 -4 68 -28 68c-16 0 -26 -9 -40 -52l-135 -432h-46l-138 414c-21 66 -30 69 -56 69v35h201v-35c-29 0 -39 -4 -39 -19c0 -9 3 -21 8 -38l75 -264h2l79 281c3 10 5 18 5 24c0 12 -9 16 -36 16v35h99
c47 7 88 24 130 47l11 -6v-436c0 -58 9 -75 37 -75c31 0 39 17 39 76v288c0 69 -3 71 -48 71v35c48 6 87 24 129 47l12 -6v-436c0 -58 9 -75 36 -75c31 0 39 17 39 76v288c0 69 -3 71 -47 71v35c47 6 86 24 128 47l12 -6v-435c0 -68 7 -76 61 -76v-35z" />
    <glyph glyph-name="Japan1.8100" unicode="&#x2178;" 
d="M249 607c-38 0 -64 32 -64 75c0 45 29 74 64 74c40 0 66 -32 66 -74c0 -45 -29 -75 -66 -75zM877 35v-35h-229v35c26 0 37 4 37 15c0 8 -5 19 -15 35l-73 120h-2l-89 -130c-8 -11 -12 -19 -12 -25c0 -10 11 -15 38 -15v-35h-396v35c59 0 64 7 64 78v284
c0 71 -4 73 -64 73v35c56 6 104 21 160 48l13 -7v-434c0 -69 8 -77 55 -77c28 0 47 10 74 45l129 168l-112 171c-32 49 -45 51 -71 51v35h225v-35c-27 0 -39 -4 -39 -15c0 -8 6 -19 17 -36l61 -100h3l75 104c11 15 17 25 17 33c0 10 -11 14 -35 14v35h158v-35
c-25 0 -39 -8 -67 -42l-121 -153l123 -187c35 -50 52 -53 76 -53z" />
    <glyph glyph-name="Japan1.8101" unicode="&#x2179;" 
d="M474 210h-3l-114 -134c-9 -10 -14 -18 -14 -24c0 -11 15 -17 47 -17v-35h-189v35c28 0 50 11 82 45l157 170l-135 168c-39 49 -53 52 -83 52v35h252v-35c-31 0 -46 -4 -46 -15c0 -8 7 -20 21 -36l80 -106h3l98 110c13 13 19 23 19 31c0 11 -13 16 -42 16v35h182v-35
c-30 0 -44 -10 -79 -44l-148 -153l150 -185c41 -50 59 -53 87 -53v-35h-256v35c29 0 44 4 44 15c0 8 -7 20 -21 36z" />
    <glyph glyph-name="Japan1.8102" unicode="&#x3252;" 
d="M500 849c261 0 469 -212 469 -469c0 -259 -210 -469 -469 -469s-469 210 -469 469s210 469 469 469zM500 824c-247 0 -444 -201 -444 -444c0 -245 199 -444 444 -444s444 199 444 444s-199 444 -444 444zM478 238l-21 -128h-269l-13 13c20 149 110 242 150 283
c37 39 58 75 58 129c0 74 -33 96 -64 96c-42 0 -59 -38 -66 -79c-4 -27 -18 -36 -39 -36c-20 0 -32 12 -32 41c0 42 40 108 141 108c111 0 153 -70 153 -137c0 -45 -22 -88 -50 -123c-34 -38 -77 -68 -115 -102c-37 -36 -64 -79 -78 -132h141c47 0 54 11 69 70zM830 238
l-20 -128h-270l-13 13c20 149 110 242 150 283c37 39 58 75 58 129c0 74 -33 96 -64 96c-42 0 -59 -39 -65 -79c-5 -27 -19 -36 -40 -36c-20 0 -32 12 -32 41c0 40 38 108 142 108c106 0 152 -67 152 -137c0 -45 -22 -88 -50 -123c-34 -38 -77 -68 -115 -102
c-37 -36 -64 -79 -77 -132h140c47 0 54 11 69 70z" />
    <glyph glyph-name="Japan1.8103" unicode="&#x3253;" 
d="M500 849c261 0 469 -212 469 -469c0 -259 -210 -469 -469 -469s-469 210 -469 469s210 469 469 469zM500 824c-247 0 -444 -201 -444 -444c0 -245 199 -444 444 -444s444 199 444 444s-199 444 -444 444zM474 238l-20 -128h-270l-13 13c20 149 110 242 150 283
c37 39 58 75 58 129c0 74 -33 96 -64 96c-42 0 -59 -39 -65 -79c-5 -27 -19 -36 -40 -36c-20 0 -32 12 -32 41c0 40 38 108 142 108c106 0 152 -67 152 -137c0 -45 -22 -88 -50 -123c-34 -38 -77 -68 -115 -102c-37 -36 -64 -79 -77 -132h140c47 0 54 11 69 70zM621 388v31
c14 0 32 5 49 12c46 15 66 63 66 104c0 52 -26 96 -63 96c-40 0 -55 -43 -61 -69s-13 -45 -42 -45c-23 0 -33 18 -33 43c0 45 53 105 141 105c124 0 147 -83 147 -135c0 -47 -31 -108 -124 -122v-2c58 -3 143 -42 143 -143c0 -69 -38 -164 -170 -164
c-105 0 -147 66 -147 108c0 27 12 43 35 43c14 0 24 -5 31 -18c7 -11 13 -30 21 -48c13 -29 30 -51 62 -51c47 0 75 44 75 124c0 31 -6 56 -18 77c-27 47 -85 54 -112 54z" />
    <glyph glyph-name="Japan1.8104" unicode="&#x3254;" 
d="M500 849c261 0 469 -212 469 -469c0 -259 -210 -469 -469 -469s-469 210 -469 469s210 469 469 469zM500 824c-247 0 -444 -201 -444 -444c0 -245 199 -444 444 -444s444 199 444 444s-199 444 -444 444zM684 259h-178v28l193 376h73v-365h62l-6 -39h-56v-55
c0 -54 4 -62 54 -62v-32h-202v32c57 0 60 8 60 62v55zM654 499l-98 -201h128v207c0 19 1 46 2 62h-3c-4 -10 -16 -42 -29 -68zM477 238l-21 -128h-269l-13 13c20 148 110 243 149 283c37 39 59 75 59 129c0 81 -39 96 -64 96c-42 0 -59 -38 -66 -79c-5 -27 -18 -36 -39 -36
c-20 0 -32 12 -32 41c0 40 39 108 141 108c111 0 153 -70 153 -137c0 -45 -22 -88 -50 -123c-34 -38 -77 -68 -115 -102c-37 -36 -64 -79 -78 -132h140c48 0 55 11 69 70z" />
    <glyph glyph-name="Japan1.8105" unicode="&#x3255;" 
d="M500 849c261 0 469 -212 469 -469c0 -259 -210 -469 -469 -469s-469 210 -469 469s210 469 469 469zM500 824c-247 0 -444 -201 -444 -444c0 -245 199 -444 444 -444s444 199 444 444s-199 444 -444 444zM549 385l32 269h154c32 0 37 2 41 13h31l-18 -73h-170l-21 -153
l1 -1c17 16 44 27 81 27c87 0 142 -61 142 -172c0 -115 -51 -196 -163 -196c-85 0 -133 60 -133 104c0 31 19 44 37 44c11 0 23 -5 30 -20c29 -82 43 -94 69 -94c37 0 68 43 68 155c0 38 -3 144 -70 144c-30 0 -59 -22 -77 -56zM477 238l-21 -128h-269l-13 13
c20 148 110 243 149 283c37 39 59 75 59 129c0 81 -39 96 -64 96c-42 0 -59 -38 -66 -79c-5 -27 -18 -36 -39 -36c-20 0 -32 12 -32 41c0 40 39 108 141 108c111 0 153 -70 153 -137c0 -45 -22 -88 -50 -123c-34 -38 -77 -68 -115 -102c-37 -36 -64 -79 -78 -132h140
c48 0 55 11 69 70z" />
    <glyph glyph-name="Japan1.8106" unicode="&#x3256;" 
d="M500 849c261 0 469 -212 469 -469c0 -259 -210 -469 -469 -469s-469 210 -469 469s210 469 469 469zM500 824c-247 0 -444 -201 -444 -444c0 -245 199 -444 444 -444s444 199 444 444s-199 444 -444 444zM613 394h2c16 31 48 59 94 59c91 0 137 -85 137 -167
c0 -94 -40 -187 -160 -187c-104 0 -164 84 -164 271c0 99 17 181 53 233c27 39 65 62 122 62c90 0 127 -62 127 -101c0 -22 -10 -40 -30 -40c-27 0 -36 13 -45 43c-4 22 -18 64 -54 64c-82 0 -82 -192 -82 -237zM754 280c0 45 -15 135 -69 135c-39 0 -70 -53 -70 -110
c0 -91 19 -172 71 -172c66 0 68 103 68 147zM477 238l-21 -128h-269l-13 13c20 148 110 243 149 283c37 39 59 75 59 129c0 81 -39 96 -64 96c-42 0 -59 -38 -66 -79c-5 -27 -18 -36 -39 -36c-20 0 -32 12 -32 41c0 40 39 108 141 108c111 0 153 -70 153 -137
c0 -45 -22 -88 -50 -123c-34 -38 -77 -68 -115 -102c-37 -36 -64 -79 -78 -132h140c48 0 55 11 69 70z" />
    <glyph glyph-name="Japan1.8107" unicode="&#x3257;" 
d="M500 849c261 0 469 -212 469 -469c0 -259 -210 -469 -469 -469s-469 210 -469 469s210 469 469 469zM500 824c-247 0 -444 -201 -444 -444c0 -245 199 -444 444 -444s444 199 444 444s-199 444 -444 444zM477 238l-21 -128h-269l-13 13c20 148 110 243 149 283
c37 39 59 75 59 129c0 81 -39 96 -64 96c-42 0 -59 -38 -66 -79c-5 -27 -18 -36 -39 -36c-20 0 -32 12 -32 41c0 40 39 108 141 108c111 0 153 -70 153 -137c0 -45 -22 -88 -50 -123c-34 -38 -77 -68 -115 -102c-37 -36 -64 -79 -78 -132h140c48 0 55 11 69 70zM511 524
l24 130h281l11 -18c-104 -156 -154 -364 -154 -534h-98c3 229 144 446 176 492h-124c-51 0 -63 -6 -78 -70h-38z" />
    <glyph glyph-name="Japan1.8108" unicode="&#x3258;" 
d="M617 382v2c-50 35 -87 87 -87 147c0 69 48 134 154 134c41 0 83 -10 112 -33c26 -21 41 -53 41 -97c0 -60 -41 -99 -97 -123v-2c58 -33 111 -91 111 -154c0 -68 -39 -157 -168 -157c-111 0 -165 64 -165 149c0 45 29 100 99 134zM683 631c-41 0 -70 -35 -70 -85
c0 -47 37 -91 85 -115c36 27 56 51 56 107c0 31 -13 93 -71 93zM682 133c43 0 75 39 75 101c0 72 -70 112 -97 127c-45 -29 -59 -73 -59 -115c0 -60 29 -113 81 -113zM500 849c261 0 469 -212 469 -469c0 -259 -210 -469 -469 -469s-469 210 -469 469s210 469 469 469z
M500 824c-247 0 -444 -201 -444 -444c0 -245 199 -444 444 -444s444 199 444 444s-199 444 -444 444zM476 238l-21 -128h-270l-12 13c17 148 111 244 149 283c37 39 59 75 59 129c0 76 -35 96 -64 96c-42 0 -59 -38 -66 -79c-5 -27 -18 -36 -39 -36c-20 0 -32 12 -32 41
c0 40 39 108 141 108c110 0 153 -72 153 -137c0 -45 -22 -88 -50 -123c-34 -38 -77 -68 -115 -102c-37 -36 -64 -79 -78 -132h140c48 0 55 11 69 70z" />
    <glyph glyph-name="Japan1.8109" unicode="&#x3259;" 
d="M500 849c261 0 469 -212 469 -469c0 -259 -210 -469 -469 -469s-469 210 -469 469s210 469 469 469zM500 824c-247 0 -444 -201 -444 -444c0 -245 199 -444 444 -444s444 199 444 444s-199 444 -444 444zM765 370h-3c-16 -31 -48 -59 -95 -59c-85 0 -137 75 -137 170
c0 110 58 184 161 184c98 0 165 -85 165 -261c0 -171 -41 -305 -176 -305c-101 0 -137 64 -137 103c0 23 11 39 32 39c27 0 35 -13 45 -42c8 -33 22 -66 60 -66c25 0 43 14 56 41c21 43 29 113 29 196zM623 483c0 -8 0 -134 69 -134c32 0 69 39 69 114c0 86 -20 168 -71 168
c-67 0 -67 -116 -67 -148zM476 238l-21 -128h-269l-13 13c20 149 110 242 150 283c36 39 58 75 58 129c0 74 -33 96 -64 96c-42 0 -59 -38 -66 -79c-4 -27 -18 -36 -39 -36c-20 0 -32 12 -32 41c0 42 40 108 141 108c111 0 153 -70 153 -137c0 -45 -22 -88 -50 -123
c-34 -38 -77 -68 -115 -102c-37 -36 -64 -79 -78 -132h141c47 0 54 11 68 70z" />
    <glyph glyph-name="Japan1.8110" unicode="&#x325a;" 
d="M500 849c261 0 469 -212 469 -469c0 -259 -210 -469 -469 -469s-469 210 -469 469s210 469 469 469zM500 824c-247 0 -444 -201 -444 -444c0 -245 199 -444 444 -444s444 199 444 444s-199 444 -444 444zM691 99c-30 0 -73 6 -109 48c-39 44 -57 121 -57 237
c0 120 18 281 166 281c146 0 166 -155 166 -281c0 -116 -17 -193 -56 -237c-26 -31 -63 -48 -110 -48zM690 631c-15 0 -30 -6 -42 -25c-19 -29 -31 -92 -31 -223c0 -145 11 -250 74 -250s74 105 74 250s-11 248 -75 248zM341 408v-2c49 -3 143 -36 143 -143
c0 -76 -43 -164 -170 -164c-105 0 -147 66 -147 108c0 27 12 43 36 43c14 0 23 -5 31 -18c6 -11 13 -30 21 -48c12 -29 29 -51 61 -51c51 0 76 53 76 124c0 77 -40 131 -131 131v31c19 0 115 11 115 116c0 60 -32 96 -62 96c-29 0 -52 -24 -61 -69c-7 -26 -13 -45 -43 -45
c-23 0 -33 18 -33 43c0 45 55 105 141 105c126 0 148 -87 148 -135c0 -50 -33 -108 -125 -122z" />
    <glyph glyph-name="Japan1.8111" unicode="&#x325b;" 
d="M500 849c261 0 469 -212 469 -469c0 -259 -210 -469 -469 -469s-469 210 -469 469s210 469 469 469zM500 824c-247 0 -444 -201 -444 -444c0 -245 199 -444 444 -444s444 199 444 444s-199 444 -444 444zM264 388v31c14 0 32 5 49 12c47 15 66 60 66 104
c0 52 -27 96 -62 96c-29 0 -52 -24 -61 -69c-7 -26 -13 -45 -43 -45c-23 0 -33 18 -33 43c0 45 53 105 141 105c126 0 148 -87 148 -135c0 -50 -33 -108 -125 -122v-2c49 -3 143 -36 143 -143c0 -76 -43 -164 -170 -164c-105 0 -147 66 -147 108c0 27 12 43 36 43
c14 0 23 -5 31 -18c6 -11 13 -30 21 -48c12 -29 29 -51 61 -51c51 0 76 53 76 124c0 80 -44 131 -131 131zM583 560l-9 33c63 24 107 44 151 70l12 -6v-450c0 -56 5 -63 70 -63v-34h-230v34c69 0 74 7 74 63v321c0 34 -3 47 -18 47c-12 0 -28 -5 -50 -15z" />
    <glyph glyph-name="Japan1.8112" unicode="&#x249c;" 
d="M691 464v-234c0 -51 12 -73 35 -73c11 0 21 3 30 8l7 -32c-23 -10 -47 -15 -85 -15c-51 0 -76 18 -89 57h-3c-39 -36 -85 -64 -165 -64c-73 0 -153 41 -153 129c0 52 20 91 73 123c39 25 96 46 172 61l70 16v44c0 35 -5 106 -92 106c-68 0 -93 -46 -108 -78
c-7 -20 -20 -33 -49 -33s-41 18 -41 39c0 45 56 111 205 111c124 0 193 -42 193 -165zM583 216v185c-45 -10 -93 -26 -131 -47c-40 -23 -69 -51 -69 -98c0 -65 38 -90 90 -90c49 0 83 25 110 50zM207 -79l-20 -13c-94 101 -156 243 -156 472c0 217 55 364 156 472l20 -13
c-73 -111 -108 -230 -108 -459s35 -348 108 -459zM793 839l20 13c94 -101 156 -243 156 -472c0 -217 -55 -364 -156 -472l-20 13c73 111 108 230 108 459s-35 348 -108 459z" />
    <glyph glyph-name="Japan1.8113" unicode="&#x249d;" 
d="M398 80l-81 -49l-13 5v617c0 57 -5 66 -55 66v31c50 7 101 20 151 45l13 -6v-301h2c30 29 73 55 142 55c144 0 212 -120 212 -252c0 -139 -72 -266 -223 -266c-64 0 -107 22 -144 55h-4zM413 438v-313c24 -21 64 -56 113 -56c61 0 127 53 127 221c0 53 -10 206 -124 206
c-49 0 -84 -24 -116 -58zM207 -79l-20 -13c-94 101 -156 243 -156 472c0 217 55 364 156 472l20 -13c-73 -111 -108 -230 -108 -459s35 -348 108 -459zM793 839l20 13c94 -101 156 -243 156 -472c0 -217 -55 -364 -156 -472l-20 13c73 111 108 230 108 459s-35 348 -108 459
z" />
    <glyph glyph-name="Japan1.8114" unicode="&#x249e;" 
d="M207 -79l-20 -13c-94 101 -156 243 -156 472c0 217 55 364 156 472l20 -13c-73 -111 -108 -230 -108 -459s35 -348 108 -459zM793 839l20 13c94 -101 156 -243 156 -472c0 -217 -55 -364 -156 -472l-20 13c73 111 108 230 108 459s-35 348 -108 459zM685 242l35 -22
c-47 -67 -104 -109 -195 -109c-182 0 -239 137 -239 262c0 144 86 256 247 256c105 0 174 -56 174 -107c0 -25 -13 -43 -37 -43c-32 0 -45 29 -59 58c-14 31 -36 53 -77 53c-63 0 -133 -60 -133 -215c0 -214 118 -218 146 -218c64 0 107 36 138 85z" />
    <glyph glyph-name="Japan1.8115" unicode="&#x249f;" 
d="M592 491v156c0 61 -4 71 -62 71v31c57 7 108 21 158 46l13 -6v-655c0 -60 8 -65 55 -66v-28c-22 0 -100 -1 -149 -16l-10 7l-2 53h-2c-25 -28 -71 -59 -140 -59c-119 0 -214 84 -214 266c0 92 39 251 227 251c59 0 100 -27 124 -51h2zM592 138v294c-24 34 -61 65 -105 65
c-118 0 -132 -125 -132 -213c0 -122 43 -214 126 -214c48 0 86 33 111 68zM207 -79l-20 -13c-94 101 -156 243 -156 472c0 217 55 364 156 472l20 -13c-73 -111 -108 -230 -108 -459s35 -348 108 -459zM793 839l20 13c94 -101 156 -243 156 -472c0 -217 -55 -364 -156 -472
l-20 13c73 111 108 230 108 459s-35 348 -108 459z" />
    <glyph glyph-name="Japan1.8116" unicode="&#x24a0;" 
d="M727 375h-340c0 -63 9 -117 36 -159c26 -38 68 -61 114 -61c76 0 129 46 155 93l34 -18c-48 -81 -118 -119 -208 -119c-136 0 -247 69 -247 268c0 141 86 250 234 250c178 0 222 -151 222 -254zM387 415h228c0 66 -15 175 -110 175c-51 0 -113 -39 -118 -175zM207 -79
l-20 -13c-94 101 -156 243 -156 472c0 217 55 364 156 472l20 -13c-73 -111 -108 -230 -108 -459s35 -348 108 -459zM793 839l20 13c94 -101 156 -243 156 -472c0 -217 -55 -364 -156 -472l-20 13c73 111 108 230 108 459s-35 348 -108 459z" />
    <glyph glyph-name="Japan1.8117" unicode="&#x24a1;" 
d="M207 -79l-20 -13c-94 101 -156 243 -156 472c0 217 55 364 156 472l20 -13c-73 -111 -108 -230 -108 -459s35 -348 108 -459zM793 839l20 13c94 -101 156 -243 156 -472c0 -217 -55 -364 -156 -472l-20 13c73 111 108 230 108 459s-35 348 -108 459zM392 129v340h-70v41
h70v67c0 136 74 198 179 198c104 0 148 -62 148 -99c0 -25 -12 -42 -39 -42c-33 0 -44 26 -55 52c-11 25 -21 51 -52 51c-17 0 -32 -7 -44 -23c-18 -24 -29 -63 -29 -138v-66h121v-41h-121v-343c0 -69 6 -76 82 -76v-33h-262v33c67 0 72 8 72 79z" />
    <glyph glyph-name="Japan1.8118" unicode="&#x24a2;" 
d="M441 218h115c159 0 209 -66 209 -135c0 -99 -111 -173 -279 -173c-147 0 -244 38 -244 120c0 60 60 102 115 123c-39 9 -78 33 -78 78c0 44 39 73 82 96c-52 29 -84 78 -84 140c0 111 94 174 217 174c55 0 100 -12 132 -30l140 18v-54l-104 8c33 -30 52 -69 52 -116
c0 -116 -97 -173 -216 -173c-36 0 -70 6 -103 18c-28 -16 -43 -34 -43 -53c0 -27 29 -41 89 -41zM496 333c74 0 108 58 108 134c0 70 -36 135 -109 135c-70 0 -107 -65 -107 -135c0 -80 40 -134 108 -134zM539 139h-131c-47 -28 -75 -59 -75 -99c0 -56 59 -91 157 -91
c119 0 185 53 185 109c0 40 -28 81 -136 81zM207 -79l-20 -13c-94 101 -156 243 -156 472c0 217 55 364 156 472l20 -13c-73 -111 -108 -230 -108 -459s35 -348 108 -459zM793 839l20 13c94 -101 156 -243 156 -472c0 -217 -55 -364 -156 -472l-20 13
c73 111 108 230 108 459s-35 348 -108 459z" />
    <glyph glyph-name="Japan1.8119" unicode="&#x24a3;" 
d="M207 -79l-20 -13c-94 101 -156 243 -156 472c0 217 55 364 156 472l20 -13c-73 -111 -108 -230 -108 -459s35 -348 108 -459zM793 839l20 13c94 -101 156 -243 156 -472c0 -217 -55 -364 -156 -472l-20 13c73 111 108 230 108 459s-35 348 -108 459zM294 127v501
c0 63 -6 70 -62 70v31c53 8 107 21 158 46l13 -7v-332h2c45 51 104 86 172 86c138 0 150 -100 150 -180v-216c0 -64 5 -76 55 -76v-33h-217v33c48 0 53 8 53 77v213c0 68 -5 132 -81 132c-45 0 -90 -38 -134 -93v-253c0 -68 6 -76 51 -76v-33h-222v33c57 0 62 9 62 77z" />
    <glyph glyph-name="Japan1.8120" unicode="&#x24a4;" 
d="M207 -79l-20 -13c-94 101 -156 243 -156 472c0 217 55 364 156 472l20 -13c-73 -111 -108 -230 -108 -459s35 -348 108 -459zM793 839l20 13c94 -101 156 -243 156 -472c0 -217 -55 -364 -156 -472l-20 13c73 111 108 230 108 459s-35 348 -108 459zM504 719
c43 0 71 -33 71 -77c0 -45 -31 -76 -71 -76c-41 0 -72 31 -72 76c0 46 32 77 72 77zM564 503v-386c0 -68 5 -76 71 -76v-34h-256v34c71 0 76 8 76 77v243c0 69 -3 72 -76 72v31c56 4 116 20 172 46z" />
    <glyph glyph-name="Japan1.8121" unicode="&#x24a5;" 
d="M207 -79l-20 -13c-94 101 -156 243 -156 472c0 217 55 364 156 472l20 -13c-73 -111 -108 -230 -108 -459s35 -348 108 -459zM793 839l20 13c94 -101 156 -243 156 -472c0 -217 -55 -364 -156 -472l-20 13c73 111 108 230 108 459s-35 348 -108 459zM531 719
c42 0 71 -33 71 -77c0 -45 -32 -76 -71 -76c-40 0 -72 31 -72 76c0 46 32 77 72 77zM482 198v164c0 68 -3 71 -75 71v31c59 6 118 20 172 46l13 -6v-288c0 -157 -26 -306 -190 -306c-95 0 -144 56 -144 94c0 22 15 38 36 38c30 0 42 -19 56 -48c14 -31 32 -44 53 -44
c76 0 79 141 79 248z" />
    <glyph glyph-name="Japan1.8122" unicode="&#x24a6;" 
d="M207 -79l-20 -13c-94 101 -156 243 -156 472c0 217 55 364 156 472l20 -13c-73 -111 -108 -230 -108 -459s35 -348 108 -459zM793 839l20 13c94 -101 156 -243 156 -472c0 -217 -55 -364 -156 -472l-20 13c73 111 108 230 108 459s-35 348 -108 459zM421 290h3l143 141
c14 13 22 24 22 32s-11 13 -39 13v34h178v-34c-30 -1 -51 -7 -76 -32l-103 -100l158 -248c23 -41 46 -46 78 -46v-33h-156l-159 261l-49 -51v-101c1 -66 4 -76 56 -76v-33h-227v33c59 0 62 12 62 77v496c0 65 -7 75 -62 75v31c52 6 106 21 158 46l13 -7v-478z" />
    <glyph glyph-name="Japan1.8123" unicode="&#x24a7;" 
d="M207 -79l-20 -13c-94 101 -156 243 -156 472c0 217 55 364 156 472l20 -13c-73 -111 -108 -230 -108 -459s35 -348 108 -459zM793 839l20 13c94 -101 156 -243 156 -472c0 -217 -55 -364 -156 -472l-20 13c73 111 108 230 108 459s-35 348 -108 459zM447 127v501
c0 62 -3 70 -75 70v31c55 6 115 21 171 46l13 -7v-642c0 -65 5 -76 71 -76v-33h-255v33c71 0 75 11 75 77z" />
    <glyph glyph-name="Japan1.8124" unicode="&#x24a8;" 
d="M207 -79l-20 -13c-94 101 -156 243 -156 472c0 217 55 364 156 472l20 -13c-73 -111 -108 -230 -108 -459s35 -348 108 -459zM793 839l20 13c94 -101 156 -243 156 -472c0 -217 -55 -364 -156 -472l-20 13c73 111 108 230 108 459s-35 348 -108 459zM783 466v-237
c0 -65 6 -72 41 -72v-33h-180v33c34 0 40 7 40 68v224c0 61 -4 129 -49 129c-30 0 -58 -29 -81 -79v-270c0 -67 4 -72 41 -72v-33h-180v33c38 0 40 6 40 68v222c0 46 0 131 -48 131c-23 0 -53 -29 -81 -80v-269c0 -65 4 -72 41 -72v-33h-192v33c48 0 52 7 52 77v244
c0 66 -6 74 -52 74v30c40 8 88 22 133 47l13 -8l3 -67h1c24 35 68 75 119 75c64 0 94 -43 104 -78h3c23 36 64 78 123 78c85 0 109 -70 109 -163z" />
    <glyph glyph-name="Japan1.8125" unicode="&#x24a9;" 
d="M207 -79l-20 -13c-94 101 -156 243 -156 472c0 217 55 364 156 472l20 -13c-73 -111 -108 -230 -108 -459s35 -348 108 -459zM793 839l20 13c94 -101 156 -243 156 -472c0 -217 -55 -364 -156 -472l-20 13c73 111 108 230 108 459s-35 348 -108 459zM726 465v-233
c0 -64 6 -75 55 -75v-33h-216v33c49 0 52 8 52 77v228c0 65 -12 117 -87 117c-43 0 -91 -36 -135 -93v-253c0 -68 2 -76 51 -76v-33h-224v33c59 0 64 8 64 77v243c0 67 -6 75 -64 74v31c54 7 106 21 152 47l15 -8l4 -81h2c47 54 106 89 172 89c113 0 159 -59 159 -164z" />
    <glyph glyph-name="Japan1.8126" unicode="&#x24aa;" 
d="M499 111c-57 0 -121 9 -177 56c-48 41 -74 108 -74 206c0 164 92 256 251 256c165 0 252 -98 252 -256c0 -97 -26 -161 -69 -201c-47 -43 -107 -61 -183 -61zM499 590c-125 0 -136 -138 -136 -220c0 -87 16 -142 41 -176c21 -28 53 -44 95 -44c125 0 136 143 136 220
c0 80 -12 220 -136 220zM207 -79l-20 -13c-94 101 -156 243 -156 472c0 217 55 364 156 472l20 -13c-73 -111 -108 -230 -108 -459s35 -348 108 -459zM793 839l20 13c94 -101 156 -243 156 -472c0 -217 -55 -364 -156 -472l-20 13c73 111 108 230 108 459s-35 348 -108 459z
" />
    <glyph glyph-name="Japan1.8127" unicode="&#x24ab;" 
d="M417 207v-178c0 -64 6 -72 61 -72v-34h-231v34c57 0 62 8 62 72v491c0 65 -3 74 -62 74v31c47 6 104 21 152 47l12 -9l4 -58h2c40 43 88 67 150 67c122 0 205 -97 205 -254c0 -160 -71 -264 -213 -264c-63 0 -107 22 -140 53h-2zM417 553v-288c32 -40 71 -64 117 -64
c120 0 123 165 123 219c0 165 -71 203 -121 203s-87 -33 -119 -70zM207 -79l-20 -13c-94 101 -156 243 -156 472c0 217 55 364 156 472l20 -13c-73 -111 -108 -230 -108 -459s35 -348 108 -459zM793 839l20 13c94 -101 156 -243 156 -472c0 -217 -55 -364 -156 -472l-20 13
c73 111 108 230 108 459s-35 348 -108 459z" />
    <glyph glyph-name="Japan1.8128" unicode="&#x24ac;" 
d="M696 665v-636c0 -64 5 -72 60 -72v-34h-233v34c61 0 64 8 64 72v178h-2c-31 -30 -73 -53 -129 -53c-155 0 -221 112 -221 259c0 184 111 259 241 259c62 0 103 -22 144 -55h4l60 52zM587 263v310c-24 32 -53 55 -103 55c-118 0 -133 -133 -133 -210
c0 -57 5 -219 128 -219c46 0 82 28 108 64zM207 -79l-20 -13c-94 101 -156 243 -156 472c0 217 55 364 156 472l20 -13c-73 -111 -108 -230 -108 -459s35 -348 108 -459zM793 839l20 13c94 -101 156 -243 156 -472c0 -217 -55 -364 -156 -472l-20 13c73 111 108 230 108 459
s-35 348 -108 459z" />
    <glyph glyph-name="Japan1.8129" unicode="&#x24ad;" 
d="M207 -79l-20 -13c-94 101 -156 243 -156 472c0 217 55 364 156 472l20 -13c-73 -111 -108 -230 -108 -459s35 -348 108 -459zM793 839l20 13c94 -101 156 -243 156 -472c0 -217 -55 -364 -156 -472l-20 13c73 111 108 230 108 459s-35 348 -108 459zM486 544h2
c47 57 87 85 140 85c59 0 95 -44 95 -81c0 -29 -16 -47 -40 -47c-21 0 -36 12 -46 38c-11 27 -20 37 -40 37c-36 0 -72 -35 -110 -85v-258c0 -66 6 -76 78 -76v-33h-251v33c60 0 65 8 65 77v246c0 64 -6 71 -65 71v31c55 6 105 20 155 47l13 -8z" />
    <glyph glyph-name="Japan1.8130" unicode="&#x24ae;" 
d="M207 -79l-20 -13c-94 101 -156 243 -156 472c0 217 55 364 156 472l20 -13c-73 -111 -108 -230 -108 -459s35 -348 108 -459zM793 839l20 13c94 -101 156 -243 156 -472c0 -217 -55 -364 -156 -472l-20 13c73 111 108 230 108 459s-35 348 -108 459zM675 499l-42 -7
c-19 78 -52 103 -114 103c-50 0 -100 -22 -100 -66c0 -24 17 -47 45 -63c34 -19 83 -38 111 -53c51 -25 130 -63 130 -149c0 -100 -102 -153 -217 -153c-75 0 -127 13 -170 32c-7 43 -14 80 -23 122l42 8c27 -95 75 -122 141 -122c81 0 112 46 112 88c0 21 -6 37 -21 52
c-21 20 -56 32 -109 59c-92 47 -148 76 -148 157c0 73 72 128 200 128c60 0 106 -10 143 -23c5 -31 10 -63 20 -113z" />
    <glyph glyph-name="Japan1.8131" unicode="&#x24af;" 
d="M207 -79l-20 -13c-94 101 -156 243 -156 472c0 217 55 364 156 472l20 -13c-73 -111 -108 -230 -108 -459s35 -348 108 -459zM793 839l20 13c94 -101 156 -243 156 -472c0 -217 -55 -364 -156 -472l-20 13c73 111 108 230 108 459s-35 348 -108 459zM333 575v31
c85 8 120 49 147 157h34v-147h143v-41h-143v-327c0 -64 24 -90 66 -90c32 0 57 11 85 32l21 -31c-38 -32 -81 -48 -139 -48c-70 0 -142 26 -142 137v327h-72z" />
    <glyph glyph-name="Japan1.8132" unicode="&#x24b0;" 
d="M207 -79l-20 -13c-94 101 -156 243 -156 472c0 217 55 364 156 472l20 -13c-73 -111 -108 -230 -108 -459s35 -348 108 -459zM793 839l20 13c94 -101 156 -243 156 -472c0 -217 -55 -364 -156 -472l-20 13c73 111 108 230 108 459s-35 348 -108 459zM777 156v-30
c-46 0 -99 0 -153 -15l-12 5l-5 71h-3c-35 -41 -86 -76 -164 -76c-115 0 -161 65 -161 181v188c0 64 -4 71 -56 71v31c47 6 102 22 151 47l14 -8v-316c0 -74 15 -139 93 -139c47 0 89 27 124 73v242c0 64 -3 70 -54 70v31c47 6 101 22 149 47l15 -8v-388c0 -69 3 -77 62 -77
z" />
    <glyph glyph-name="Japan1.8133" unicode="&#x24b1;" 
d="M207 -79l-20 -13c-94 101 -156 243 -156 472c0 217 55 364 156 472l20 -13c-73 -111 -108 -230 -108 -459s35 -348 108 -459zM793 839l20 13c94 -101 156 -243 156 -472c0 -217 -55 -364 -156 -472l-20 13c73 111 108 230 108 459s-35 348 -108 459zM529 111h-45
l-175 404c-27 62 -35 67 -69 67v34h220v-34c-33 0 -46 -4 -46 -20c0 -8 4 -20 10 -36l110 -283h3l115 299c4 10 6 18 6 23c0 13 -11 17 -42 17v34h144v-34c-30 0 -38 -5 -57 -50z" />
    <glyph glyph-name="Japan1.8134" unicode="&#x24b2;" 
d="M207 -79l-20 -13c-94 101 -156 243 -156 472c0 217 55 364 156 472l20 -13c-73 -111 -108 -230 -108 -459s35 -348 108 -459zM793 839l20 13c94 -101 156 -243 156 -472c0 -217 -55 -364 -156 -472l-20 13c73 111 108 230 108 459s-35 348 -108 459zM790 533l-120 -423
h-64l-95 359h-2l-99 -359h-65l-124 404c-20 64 -27 68 -55 68v34h186v-34c-27 0 -38 -4 -38 -22c0 -8 2 -20 7 -36l80 -279h3l81 303l-7 18c-5 14 -12 16 -42 16v34h184v-34c-27 0 -38 -4 -38 -22c0 -8 2 -18 5 -31l74 -283h3l80 297c2 7 3 14 3 19c0 14 -10 20 -38 20v34
h125v-34c-23 0 -32 -7 -44 -49z" />
    <glyph glyph-name="Japan1.8135" unicode="&#x24b3;" 
d="M207 -79l-20 -13c-94 101 -156 243 -156 472c0 217 55 364 156 472l20 -13c-73 -111 -108 -230 -108 -459s35 -348 108 -459zM793 839l20 13c94 -101 156 -243 156 -472c0 -217 -55 -364 -156 -472l-20 13c73 111 108 230 108 459s-35 348 -108 459zM475 325h-2l-94 -129
c-8 -10 -12 -18 -12 -24c0 -10 12 -15 40 -15v-33h-167v33c24 0 43 11 71 44l134 165l-115 166c-33 48 -46 50 -72 50v34h225v-34c-27 0 -40 -4 -40 -15c0 -8 6 -19 17 -35l66 -100h1l80 104c12 14 18 24 18 32c0 9 -11 14 -36 14v34h161v-34c-26 0 -40 -9 -69 -41
l-125 -150l128 -181c34 -50 52 -53 75 -53v-33h-229v33c26 0 38 4 38 15c0 8 -6 19 -17 35z" />
    <glyph glyph-name="Japan1.8136" unicode="&#x24b4;" 
d="M207 -79l-20 -13c-94 101 -156 243 -156 472c0 217 55 364 156 472l20 -13c-73 -111 -108 -230 -108 -459s35 -348 108 -459zM793 839l20 13c94 -101 156 -243 156 -472c0 -217 -55 -364 -156 -472l-20 13c73 111 108 230 108 459s-35 348 -108 459zM490 162l-177 367
c-30 63 -36 65 -74 65v34h220v-34c-32 0 -46 -4 -46 -19c0 -9 4 -21 12 -37l115 -259h3l112 277c4 9 6 17 6 22c0 13 -12 16 -43 16v34h149v-34c-33 0 -42 -4 -61 -47l-211 -506c-38 -89 -85 -134 -156 -134c-70 0 -111 39 -111 78c0 22 14 37 33 37c30 0 43 -17 52 -36
c10 -21 21 -36 40 -36c40 0 69 47 90 96z" />
    <glyph glyph-name="Japan1.8137" unicode="&#x24b5;" 
d="M207 -79l-20 -13c-94 101 -156 243 -156 472c0 217 55 364 156 472l20 -13c-73 -111 -108 -230 -108 -459s35 -348 108 -459zM793 839l20 13c94 -101 156 -243 156 -472c0 -217 -55 -364 -156 -472l-20 13c73 111 108 230 108 459s-35 348 -108 459zM303 482l21 134h375
l12 -17l-288 -435h171c53 0 64 18 84 101h38l-23 -141h-396l-13 18l295 433h-158c-55 0 -63 -19 -79 -93h-39z" />
    <glyph glyph-name="Japan1.8184" 
d="M127 658l-10 32c47 13 104 33 144 52l11 -5v-283c0 -37 3 -44 72 -44v-34h-229v34c72 0 75 7 75 44v180c0 25 -2 35 -14 35c-10 0 -27 -4 -49 -11zM690 742h62l-474 -755h-62zM592 -2l-12 10c20 85 51 135 133 183c43 26 69 53 69 87c0 55 -37 63 -52 63
c-32 0 -48 -33 -55 -63c-5 -23 -21 -34 -42 -34c-26 0 -41 18 -41 43c0 41 57 88 141 88c110 0 150 -59 150 -103c0 -39 -26 -64 -57 -83c-33 -21 -79 -38 -111 -54c-36 -18 -55 -36 -70 -72h147c42 0 48 9 61 52l34 -4l-19 -113h-276z" />
    <glyph glyph-name="Japan1.8185" 
d="M740 97h-187v22l191 252h77v-240h56l-4 -34h-52c0 -60 0 -66 46 -66v-33h-179v33c52 0 52 6 52 66zM700 256l-95 -125h135v127c0 13 0 38 1 54h-3c-7 -11 -23 -36 -38 -56zM141 658l-9 32c47 13 103 33 144 52l10 -5v-283c0 -37 4 -44 73 -44v-34h-229v34
c72 0 75 7 75 44v180c0 25 -3 35 -15 35c-10 0 -27 -4 -49 -11zM697 742h62l-465 -755h-62z" />
    <glyph glyph-name="Japan1.8224" unicode="&#x24ea;" 
d="M500 849c261 0 469 -212 469 -469c0 -259 -210 -469 -469 -469s-469 210 -469 469s210 469 469 469zM500 824c-247 0 -444 -201 -444 -444c0 -245 199 -444 444 -444s444 199 444 444s-199 444 -444 444zM499 88c-39 0 -94 8 -141 57c-44 48 -66 126 -66 240
c0 154 43 291 207 291c60 0 104 -20 136 -49c51 -49 72 -131 72 -242c0 -114 -21 -192 -66 -240c-36 -39 -83 -57 -142 -57zM498 641c-22 0 -46 -8 -64 -32c-24 -31 -41 -97 -41 -225c0 -125 15 -190 36 -223c19 -29 43 -38 70 -38c28 0 51 9 71 38c21 33 35 98 35 223
c0 128 -17 194 -40 225c-19 24 -42 32 -67 32z" />
    <glyph glyph-name="Japan1.8225" unicode="&#x216a;" 
d="M934 40v-40h-508v40c31 0 46 5 46 21c0 13 -9 33 -26 63l-96 174h-3l-123 -188c-16 -23 -24 -39 -24 -49c0 -16 17 -21 49 -21v-40h-188v40c31 0 42 8 78 60l178 260l-145 273c-39 68 -49 73 -93 73v40h251v-40c-30 0 -44 -5 -44 -21c0 -12 8 -30 23 -58l90 -167h2
l117 176c15 22 22 38 22 49c0 15 -16 21 -47 21v40h441v-40c-83 0 -88 -8 -88 -82v-502c0 -73 5 -82 88 -82zM431 400l151 -276c38 -66 55 -84 86 -84c54 0 61 19 61 82v502c0 64 -5 82 -63 82c-24 0 -35 -13 -66 -57z" />
    <glyph glyph-name="Japan1.8226" unicode="&#x216b;" 
d="M968 40v-40h-637v40c27 0 39 5 39 21c0 13 -7 33 -20 63l-75 168h-3l-98 -183c-13 -22 -19 -38 -19 -48c0 -17 15 -21 42 -21v-40h-165v40c28 0 35 8 68 61l145 257l-122 278c-29 66 -39 70 -77 70v40h222v-40c-25 0 -36 -5 -36 -21c0 -12 6 -29 18 -56l70 -163h2l93 172
c12 21 18 36 18 47c0 16 -13 21 -39 21v40h573v-40c-58 0 -69 -8 -69 -82v-502c0 -74 11 -82 70 -82zM350 401l124 -278c29 -64 43 -83 69 -83c33 0 41 20 41 80v506c0 57 -5 80 -35 80c-22 0 -31 -10 -60 -58zM693 626v-506c0 -60 4 -80 48 -80s48 20 48 80v506
c0 60 -4 80 -48 80s-48 -20 -48 -80z" />
    <glyph glyph-name="Japan1.8227" 
d="M499 16c-49 0 -117 10 -176 74c-54 59 -82 155 -82 293c0 136 28 237 90 298c40 38 94 62 168 62c166 0 259 -112 259 -360c0 -138 -27 -234 -81 -293c-47 -51 -106 -74 -178 -74zM499 701c-104 0 -143 -101 -143 -319c0 -149 19 -229 47 -271c25 -38 58 -52 96 -52
c39 0 70 14 97 52c27 42 47 122 47 271c0 155 -23 237 -54 278c-26 31 -59 41 -90 41zM207 -79l-20 -13c-94 101 -156 243 -156 472c0 217 55 364 156 472l20 -13c-73 -111 -108 -230 -108 -459s35 -348 108 -459zM793 839l20 13c94 -101 156 -243 156 -472
c0 -217 -55 -364 -156 -472l-20 13c73 111 108 230 108 459s-35 348 -108 459z" />
    <glyph glyph-name="Japan1.8228" 
d="M772 742l34 -28l-82 -104c31 -61 48 -142 48 -243c0 -321 -161 -382 -272 -382c-78 0 -139 28 -185 79c-4 5 -9 10 -12 15l-75 -94l-33 28l83 105c-33 62 -50 143 -50 249c0 139 32 244 95 307c41 40 105 68 177 68c77 0 153 -31 200 -92zM362 221l266 340
c-9 45 -22 83 -35 100c-25 31 -61 45 -93 45c-45 0 -75 -24 -93 -45c-32 -40 -56 -134 -56 -295c0 -51 2 -103 11 -145zM638 505l-267 -341c9 -47 29 -143 129 -143c40 0 75 16 101 55c30 46 48 136 48 290c0 37 -2 88 -11 139z" />
    <glyph glyph-name="Japan1.8286" unicode="&#x2776;" 
d="M500 849c261 0 469 -212 469 -469c0 -259 -210 -469 -469 -469s-469 210 -469 469s210 469 469 469zM678 81v58c-97 0 -103 10 -103 71v473l-17 7c-59 -28 -138 -62 -230 -87l19 -63c34 10 57 16 71 16c19 0 22 -16 22 -55v-291c0 -61 -6 -71 -108 -71v-58h346z" />
    <glyph glyph-name="Japan1.8287" unicode="&#x2777;" 
d="M500 849c261 0 469 -212 469 -469c0 -259 -210 -469 -469 -469s-469 210 -469 469s210 469 469 469zM308 81h386l27 169l-60 5c-18 -68 -32 -75 -86 -75h-188c20 53 50 94 104 127c50 30 114 61 157 99c36 33 70 76 70 129c0 58 -34 157 -211 157
c-131 0 -203 -86 -203 -144c0 -35 19 -56 52 -56c27 0 52 13 64 42c11 26 18 50 31 65s29 26 52 26c54 0 76 -45 76 -78c0 -64 -35 -105 -93 -147c-78 -55 -162 -122 -196 -303z" />
    <glyph glyph-name="Japan1.8288" unicode="&#x2778;" 
d="M500 849c261 0 469 -212 469 -469c0 -259 -210 -469 -469 -469s-469 210 -469 469s210 469 469 469zM534 403v4c92 11 164 52 164 138c0 53 -44 147 -209 147c-126 0 -199 -79 -199 -134c0 -27 17 -49 47 -49c43 0 57 18 68 52c15 41 34 63 76 63c58 0 76 -46 76 -82
c0 -98 -90 -113 -144 -113v-56c121 0 162 -45 162 -125c0 -67 -33 -112 -89 -112c-34 0 -60 20 -78 53c-11 18 -19 38 -29 50c-11 13 -27 21 -49 21c-33 0 -51 -25 -51 -56c0 -61 68 -135 205 -135c208 0 237 139 237 186c0 77 -73 144 -187 148z" />
    <glyph glyph-name="Japan1.8289" unicode="&#x2779;" 
d="M500 849c261 0 469 -212 469 -469c0 -259 -210 -469 -469 -469s-469 210 -469 469s210 469 469 469zM247 292v-44h239v-36c0 -60 -3 -73 -67 -73v-58h264v58c-55 0 -60 13 -60 72v37h70l7 66h-77v377h-121zM486 314h-146l102 161c19 30 33 62 42 77h4
c-1 -21 -2 -48 -2 -67v-171z" />
    <glyph glyph-name="Japan1.8290" unicode="&#x277a;" 
d="M500 849c261 0 469 -212 469 -469c0 -259 -210 -469 -469 -469s-469 210 -469 469s210 469 469 469zM660 581l29 114h-43c-7 -13 -14 -15 -58 -15h-219l-42 -311l60 -13c19 37 49 60 88 60c75 0 90 -75 90 -138c0 -88 -27 -142 -81 -142c-26 0 -48 9 -60 30
c-11 16 -19 39 -30 57c-13 19 -32 25 -53 25c-24 0 -52 -19 -52 -55c0 -69 91 -124 191 -124c161 0 231 109 231 219c0 104 -70 187 -201 187c-53 0 -85 -14 -103 -24l-2 3l20 127h235z" />
    <glyph glyph-name="Japan1.8291" unicode="&#x277b;" 
d="M500 849c261 0 469 -212 469 -469c0 -259 -210 -469 -469 -469s-469 210 -469 469s210 469 469 469zM415 397l-3 1c-1 81 12 150 36 188c17 25 41 38 69 38c36 0 61 -13 77 -55c13 -32 31 -53 65 -53c35 0 55 23 55 53c0 38 -47 123 -192 123c-205 0 -251 -199 -251 -334
c0 -191 101 -289 234 -289c174 0 224 121 224 202c0 111 -68 187 -184 187c-20 0 -86 0 -130 -61zM585 268c0 -29 -2 -66 -18 -94c-13 -24 -35 -38 -64 -38c-56 0 -86 74 -86 157c0 54 42 89 87 89c69 0 81 -76 81 -114z" />
    <glyph glyph-name="Japan1.8292" unicode="&#x277c;" 
d="M500 849c261 0 469 -212 469 -469c0 -259 -210 -469 -469 -469s-469 210 -469 469s210 469 469 469zM716 680h-393l-32 -177h67c17 69 31 78 93 78h158c-47 -54 -109 -143 -151 -229c-42 -85 -71 -184 -73 -275h147c2 94 18 184 43 264c41 151 109 251 155 314z" />
    <glyph glyph-name="Japan1.8293" unicode="&#x277d;" 
d="M500 849c261 0 469 -212 469 -469c0 -259 -210 -469 -469 -469s-469 210 -469 469s210 469 469 469zM608 410v2c81 20 111 87 111 128c0 61 -56 152 -214 152c-161 0 -215 -97 -215 -165c0 -44 13 -98 104 -144v-3c-57 -17 -123 -68 -123 -141c0 -85 69 -170 229 -170h1
c229 0 237 160 237 184c0 73 -62 126 -130 157zM530 446c-26 9 -114 43 -114 104c0 49 40 75 82 75c49 0 86 -29 86 -94c0 -58 -47 -81 -54 -85zM457 349c56 -24 133 -66 133 -127c0 -59 -50 -87 -89 -87c-57 0 -105 37 -105 111c0 73 59 102 61 103z" />
    <glyph glyph-name="Japan1.8294" unicode="&#x277e;" 
d="M500 849c261 0 469 -212 469 -469c0 -259 -210 -469 -469 -469s-469 210 -469 469s210 469 469 469zM585 363h3c1 -82 -12 -152 -36 -190c-17 -25 -41 -37 -69 -37c-40 0 -61 20 -77 62c-12 31 -31 50 -59 51c-42 0 -61 -28 -61 -57c0 -44 63 -123 196 -123
c214 0 247 219 247 334c0 190 -98 289 -234 289c-152 0 -224 -108 -224 -202c0 -103 59 -187 189 -187c58 0 100 26 125 60zM415 495c0 84 27 130 82 130c56 0 86 -74 86 -157c0 -54 -42 -89 -87 -89c-55 0 -81 57 -81 116z" />
    <glyph glyph-name="Japan1.8295" 
d="M972 40v-40h-692v39c23 0 33 4 33 20c0 13 -6 33 -17 64l-58 159h-3l-81 -174c-10 -22 -15 -37 -15 -47c0 -16 11 -21 35 -21v-40h-146v40c26 0 35 7 60 61l122 258l-102 279c-26 64 -34 68 -69 68v40h203v-40c-21 0 -32 -4 -32 -21c0 -11 6 -29 16 -56l56 -155h2l75 164
c10 23 15 39 15 49c0 15 -11 19 -34 19v40h632v-40c-54 0 -61 -8 -61 -81v-503c0 -74 6 -82 61 -82zM583 628v-509c0 -55 5 -79 33 -79c27 0 34 20 34 79v509c0 54 -6 78 -34 78c-29 0 -33 -24 -33 -78zM310 405l109 -284c17 -43 29 -72 42 -81c22 5 26 25 26 78v511
c0 56 -6 75 -27 77c-11 -3 -21 -25 -36 -58zM747 628v-509c0 -55 5 -79 32 -79s34 20 34 79v509c0 54 -6 78 -34 78c-27 0 -32 -24 -32 -78z" />
    <glyph glyph-name="Japan1.8296" 
d="M614 40v-40h-374v40c21 0 30 4 30 20c0 12 -5 32 -15 63l-48 150h-1l-66 -164c-9 -22 -14 -38 -14 -48c0 -16 11 -21 31 -21v-40h-133v40c24 0 32 7 56 61l105 258l-90 280c-22 63 -30 67 -61 67v40h190v-40c-19 0 -28 -4 -28 -21c0 -12 5 -29 14 -56l46 -151h2l59 160
c9 24 14 39 14 50c0 14 -10 18 -30 18v40h449v-40c-29 0 -39 -6 -39 -28c0 -11 3 -27 7 -49l79 -431h3l78 434c3 19 5 33 5 43c0 27 -12 31 -41 31v40h134v-40c-33 0 -41 -7 -51 -64l-126 -657h-57l-138 652c-9 44 -17 65 -33 69c-20 -6 -23 -30 -23 -77v-507
c0 -74 5 -82 66 -82zM280 401l95 -280c17 -52 30 -76 45 -81c22 7 27 30 27 78v511c0 51 -2 72 -30 77c-14 -3 -23 -18 -40 -58z" />
    <glyph glyph-name="Japan1.8297" 
d="M517 40v-40h-225v40c24 0 35 4 35 20c0 13 -7 32 -18 63l-60 159h-3l-84 -174c-10 -22 -15 -37 -15 -47c0 -16 12 -21 36 -21v-40h-153v40c27 0 37 7 63 61l126 258l-106 279c-26 64 -35 68 -71 68v40h213v-40c-23 0 -34 -4 -34 -21c0 -11 6 -29 17 -56l58 -155h2l77 164
c11 23 16 39 16 49c0 15 -12 19 -36 19v40h341v-40c-32 0 -43 -7 -43 -28c0 -12 3 -28 8 -49l100 -446h3l95 448c4 20 7 34 7 45c0 26 -13 30 -45 30v40h149v-40c-36 0 -44 -8 -58 -64l-147 -657h-65l-160 652c-13 53 -21 69 -44 69c-20 0 -31 -12 -53 -58l-118 -243
l114 -284c29 -73 41 -81 78 -81z" />
    <glyph glyph-name="Japan1.8298" unicode="&#x217a;" 
d="M757 607c-39 0 -64 33 -64 75c0 45 28 74 64 74c40 0 66 -32 66 -74c0 -45 -29 -75 -66 -75zM876 35v-35h-457v35c27 0 40 4 40 15c0 8 -6 19 -17 35l-78 121h-2l-96 -131c-8 -10 -13 -18 -13 -24c0 -11 13 -16 41 -16v-35h-171v35c25 0 44 11 73 45l137 169l-118 170
c-34 49 -48 51 -75 51v35h234v-35c-29 0 -42 -4 -42 -15c0 -8 6 -19 18 -36l66 -102h3l80 106c12 14 19 25 19 33c0 9 -12 14 -36 14v35h157v-35c-20 0 -33 -9 -63 -43l-128 -152l130 -187c35 -48 51 -53 74 -53c49 0 56 9 56 77v288c0 68 -4 70 -50 70v35
c50 6 94 21 146 48l12 -7v-433c0 -70 6 -78 60 -78z" />
    <glyph glyph-name="Japan1.8299" unicode="&#x217b;" 
d="M957 34v-34h-644v35c25 0 37 4 37 15c0 7 -6 19 -15 35l-70 119h-2l-87 -129c-7 -10 -11 -18 -11 -25c0 -10 11 -15 38 -15v-35h-161v35c22 0 40 11 68 45l125 168l-109 171c-30 49 -44 51 -69 51v35h220v-35c-25 0 -37 -4 -37 -15c0 -8 5 -19 16 -36l59 -100h3l72 103
c10 15 16 26 16 34c0 10 -10 14 -33 14v35h141c57 6 102 21 158 47l13 -6v-435c0 -65 4 -77 51 -77c48 0 55 12 55 78v285c0 71 -4 73 -64 73v35c57 6 102 20 158 47l13 -6v-435c0 -69 5 -77 59 -77zM345 275l120 -187c30 -46 43 -53 66 -53c42 0 47 15 47 77v288
c0 63 -5 70 -51 70c-23 0 -37 -8 -66 -41zM626 610c-38 0 -63 31 -63 71c0 44 28 73 63 73c39 0 64 -32 64 -73c0 -43 -28 -71 -64 -71zM839 610c-38 0 -63 31 -63 71c0 44 28 73 63 73c39 0 64 -32 64 -73c0 -43 -28 -71 -64 -71z" />
    <glyph glyph-name="Japan1.8300" 
d="M971 35v-35h-698v35c23 0 33 3 33 14c0 8 -5 19 -13 35l-63 119h-2l-78 -130c-7 -10 -11 -18 -11 -24c0 -10 11 -14 35 -14v-35h-145v35c20 0 36 10 61 44l113 169l-98 171c-28 50 -40 51 -63 51v35h199v-35c-24 0 -34 -3 -34 -15c0 -7 4 -19 12 -35l55 -100h2l66 103
c9 15 14 26 14 34c0 9 -9 13 -31 13v35h110c45 6 77 21 124 47l12 -6v-435c0 -62 9 -76 37 -76c26 0 37 15 37 77v286c0 70 -2 72 -46 72v35c49 7 83 21 132 47l12 -6v-435c0 -62 8 -76 37 -76c26 0 37 15 37 77v286c0 70 -3 72 -46 72v35c48 7 82 21 130 47l14 -6v-435
c0 -68 6 -76 56 -76zM301 276l107 -188c21 -35 34 -48 45 -52c12 5 21 22 21 74v292c0 53 -6 68 -19 68c-9 0 -27 -9 -50 -41zM518 610c-37 0 -59 31 -59 71c0 42 25 70 59 70c37 0 59 -31 59 -70c0 -43 -25 -71 -59 -71zM689 610c-37 0 -59 31 -59 71c0 42 25 70 59 70
c37 0 60 -31 60 -70c0 -43 -26 -71 -60 -71zM860 610c-36 0 -58 31 -58 71c0 42 25 70 58 70c38 0 60 -31 60 -70c0 -43 -25 -71 -60 -71z" />
    <glyph glyph-name="Japan1.8301" 
d="M497 610c-35 0 -59 30 -59 71c0 42 27 70 59 70c37 0 60 -31 60 -70c0 -43 -26 -71 -60 -71zM603 35v-35h-370v35c21 0 30 3 30 14c0 7 -4 18 -11 34l-50 114h-1l-63 -124c-6 -11 -10 -19 -10 -25c0 -9 10 -13 32 -13v-35h-135v35c18 0 33 9 55 44l99 169l-85 171
c-23 50 -36 51 -57 51v35h190v-35c-21 0 -30 -3 -30 -14c0 -7 4 -19 12 -36l41 -92h1l51 95c8 16 13 27 13 34c0 10 -8 13 -27 13v35h112c50 6 90 21 138 47l12 -6v-41h194v-35c-29 0 -39 -3 -39 -19c0 -8 3 -20 8 -37l78 -278h2l83 295c3 10 5 17 5 23c0 13 -9 16 -37 16
v35h131v-35c-25 0 -34 -3 -49 -49l-137 -434h-45l-139 415c-20 59 -29 69 -55 69v-360c0 -68 4 -76 53 -76zM273 276l93 -188c20 -38 34 -50 47 -53c34 5 38 23 38 75v292c0 53 -4 65 -38 68c-17 0 -29 -9 -49 -41z" />
    <glyph glyph-name="Japan1.8302" 
d="M519 35v-35h-214v35c24 0 34 4 34 15c0 7 -5 18 -13 34l-63 118h-1l-78 -128c-7 -11 -11 -19 -11 -25c0 -10 11 -14 36 -14v-35h-153v35c21 0 38 10 64 45l115 168l-101 171c-28 49 -40 51 -64 51v35h210v-35c-24 0 -35 -4 -35 -16c0 -8 4 -19 13 -35l54 -97h2l63 101
c10 16 15 27 15 34c0 10 -9 13 -29 13v35h328v-35c-30 0 -41 -4 -41 -19c0 -9 4 -21 9 -38l88 -278h2l93 294c4 11 6 19 6 25c0 12 -10 16 -38 16v35h134v-35c-25 0 -34 -5 -50 -51l-149 -432h-50l-152 413c-22 59 -32 68 -46 70c-13 -1 -26 -11 -49 -41l-107 -153l110 -188
c30 -50 47 -53 68 -53z" />
    <glyph glyph-name="Japan1.9780" unicode="&#x2189;" 
d="M273 358c-47 0 -85 11 -115 37c-39 34 -56 83 -56 155c0 116 53 192 172 192c107 0 172 -62 172 -191c0 -128 -65 -193 -173 -193zM274 708c-69 0 -85 -70 -85 -159c0 -56 4 -157 85 -157s84 105 84 157c0 76 -11 111 -31 135c-14 17 -32 24 -53 24zM762 742l-466 -754
h-62l466 754h62zM680 175v33c18 0 34 1 51 5c35 8 63 35 63 67c0 37 -29 58 -69 58c-30 0 -55 -17 -68 -44c-11 -20 -19 -34 -47 -34c-18 0 -28 14 -28 30c0 45 71 82 147 82c123 0 151 -53 151 -92c0 -42 -39 -78 -112 -84v-2c70 -3 129 -39 129 -97
c0 -63 -65 -109 -169 -109c-90 0 -154 36 -154 84c0 17 10 31 30 31c13 0 23 -4 32 -15c8 -9 17 -21 29 -34c14 -19 31 -32 63 -32c53 0 82 29 82 75c0 78 -108 78 -130 78z" />
    <glyph glyph-name="Japan1.9781" 
d="M177 664l-4 34c58 15 95 29 132 46l10 -5v-298c0 -37 4 -44 53 -44v-33h-194v33c53 0 57 7 57 44v197c0 24 -3 35 -16 35c-10 0 -21 -4 -38 -9zM757 742l-466 -754h-62l466 754h62zM680 175v33c18 0 34 1 51 5c35 8 63 35 63 67c0 37 -29 58 -69 58
c-30 0 -55 -17 -68 -44c-11 -20 -19 -34 -47 -34c-18 0 -28 14 -28 30c0 45 71 82 147 82c123 0 151 -53 151 -92c0 -42 -39 -78 -112 -84v-2c70 -3 129 -39 129 -97c0 -63 -65 -109 -169 -109c-90 0 -154 36 -154 84c0 17 10 31 30 31c13 0 23 -4 32 -15
c8 -9 17 -21 29 -34c14 -19 31 -32 63 -32c53 0 82 29 82 75c0 78 -108 78 -130 78z" />
    <glyph glyph-name="Japan1.9782" 
d="M384 473l34 -4l-19 -105h-289l-12 10c30 111 73 150 148 188c53 29 79 51 79 88c0 45 -34 57 -66 57c-46 0 -64 -26 -76 -56c-10 -21 -21 -29 -40 -29c-17 0 -31 15 -31 35c0 38 54 85 149 85c103 0 152 -43 152 -95c0 -42 -28 -69 -62 -89c-38 -23 -77 -39 -110 -55
c-46 -21 -71 -49 -84 -85h165c43 0 51 11 62 55zM767 742l-465 -754h-62l466 754h61zM684 175v33c102 0 114 51 114 72c0 39 -32 58 -69 58c-31 0 -55 -18 -68 -44c-12 -20 -20 -34 -47 -34c-18 0 -28 14 -28 30c0 45 71 82 147 82h1c92 0 149 -32 149 -92
c0 -44 -39 -78 -111 -84v-2c70 -3 129 -39 129 -97c0 -62 -63 -109 -170 -109c-99 0 -154 42 -154 84c0 17 11 31 31 31c13 0 23 -4 32 -15c8 -9 17 -21 28 -34c15 -19 32 -32 64 -32c46 0 81 21 81 75c0 78 -105 78 -129 78z" />
    <glyph glyph-name="Japan1.9783" 
d="M745 91h-198v22l190 259h90v-247h62l-6 -34h-56c0 -58 0 -64 42 -64v-33h-173v33c49 0 49 6 49 64zM689 252l-89 -127h145v128c0 14 0 53 3 75h-7c-10 -16 -36 -54 -52 -76zM211 544v34c18 0 34 1 51 4c40 9 63 39 63 68c0 41 -36 58 -69 58c-26 0 -53 -15 -68 -45
c-11 -20 -19 -33 -47 -33c-18 0 -28 14 -28 30c0 43 66 82 147 82c51 0 151 -12 151 -93c0 -31 -21 -74 -112 -84v-2c74 -4 130 -41 130 -96c0 -64 -65 -109 -170 -109c-101 0 -154 42 -154 83c0 18 10 32 30 32c13 0 23 -4 32 -15c8 -9 17 -21 29 -35c14 -18 31 -31 63 -31
c52 0 82 28 82 74c0 78 -105 78 -130 78zM772 742l-465 -754h-62l466 754h61z" />
    <glyph glyph-name="Japan1.9784" 
d="M177 664l-4 34c58 15 95 29 132 46l10 -5v-298c0 -37 4 -44 53 -44v-33h-194v33c53 0 57 7 57 44v197c0 24 -3 35 -16 35c-10 0 -21 -4 -38 -9zM762 742l-466 -754h-62l466 754h62zM607 177l28 189h175c29 0 33 1 37 9h35l-18 -63h-199l-19 -99l2 -1c22 17 51 26 93 26
c100 0 150 -53 150 -119c0 -89 -72 -131 -167 -131c-79 0 -144 34 -144 81c0 20 15 31 31 31c15 0 26 -5 36 -20c29 -41 41 -58 80 -58c44 0 76 32 76 94c0 64 -39 89 -81 89c-35 0 -64 -15 -85 -37z" />
    <glyph glyph-name="Japan1.9785" unicode="&#x2156;" 
d="M381 473l33 -4l-19 -105h-289l-11 10c30 122 91 159 147 188c53 29 79 51 79 88c0 35 -22 57 -66 57c-40 0 -62 -21 -76 -56c-10 -21 -21 -29 -40 -29c-17 0 -30 15 -30 35c0 41 57 85 148 85c84 0 152 -30 152 -95c0 -42 -28 -69 -62 -89c-37 -23 -77 -39 -110 -55
c-45 -21 -71 -49 -83 -85h165c43 0 50 11 62 55zM769 742l-465 -754h-62l466 754h61zM607 177l28 189h175c29 0 33 1 37 9h35l-18 -63h-199l-19 -99l2 -1c22 17 51 26 93 26c100 0 150 -53 150 -119c0 -89 -72 -131 -167 -131c-79 0 -144 34 -144 81c0 20 15 31 31 31
c15 0 26 -5 36 -20c29 -41 41 -58 80 -58c44 0 76 32 76 94c0 64 -39 89 -81 89c-35 0 -64 -15 -85 -37z" />
    <glyph glyph-name="Japan1.9786" unicode="&#x2157;" 
d="M211 544v34c18 0 34 1 51 4c40 9 63 39 63 68c0 41 -36 58 -69 58c-26 0 -53 -15 -68 -45c-11 -20 -19 -33 -47 -33c-18 0 -28 14 -28 30c0 43 66 82 147 82c51 0 151 -12 151 -93c0 -31 -21 -74 -112 -84v-2c74 -4 130 -41 130 -96c0 -64 -65 -109 -170 -109
c-101 0 -154 42 -154 83c0 18 10 32 30 32c13 0 23 -4 32 -15c8 -9 17 -21 29 -35c14 -18 31 -31 63 -31c52 0 82 28 82 74c0 78 -105 78 -130 78zM765 742l-466 -754h-62l466 754h62zM610 177l29 189h175c28 0 32 1 37 9h34l-17 -63h-200l-18 -99l1 -1c23 17 51 26 93 26
c71 0 150 -30 150 -119c0 -120 -120 -131 -167 -131c-84 0 -144 38 -144 81c0 20 15 31 31 31c15 0 27 -5 36 -20c29 -41 41 -58 80 -58c35 0 76 20 76 94c0 64 -39 89 -81 89c-34 0 -63 -15 -85 -37z" />
    <glyph glyph-name="Japan1.9787" unicode="&#x2158;" 
d="M293 461h-197v22l189 259h91v-247h61l-5 -34h-56c0 -59 0 -64 42 -64v-33h-173v33c48 0 48 5 48 64zM238 621l-90 -126h145v127c0 15 1 54 3 76h-6zM791 742l-466 -754h-62l466 754h62zM620 177l28 189h175c29 0 33 1 37 9h35l-18 -63h-199l-19 -99l2 -1
c22 17 51 26 93 26c100 0 150 -53 150 -119c0 -89 -72 -131 -167 -131c-79 0 -144 34 -144 81c0 20 15 31 31 31c15 0 26 -5 36 -20c29 -41 41 -58 80 -58c44 0 76 32 76 94c0 64 -39 89 -81 89c-35 0 -64 -15 -85 -37z" />
    <glyph glyph-name="Japan1.9788" unicode="&#x2159;" 
d="M651 185l2 -1c19 29 55 50 103 50c89 0 141 -53 141 -117c0 -56 -32 -129 -162 -129c-99 0 -171 55 -171 192c0 72 31 192 176 192c62 0 137 -27 137 -78c0 -15 -9 -30 -28 -30c-24 0 -34 11 -46 33c-15 25 -31 41 -66 41c-21 0 -86 -11 -86 -153zM736 200
c-51 0 -82 -39 -82 -71c0 -61 28 -107 78 -107c53 0 78 44 78 94c0 32 -15 84 -74 84zM231 441v197c0 24 -3 35 -16 35c-10 0 -21 -4 -38 -9l-4 34c58 15 95 29 132 46l10 -5v-298c0 -37 4 -44 53 -44v-33h-194v33c53 0 57 7 57 44zM757 742l-466 -754h-62l466 754h62z" />
    <glyph glyph-name="Japan1.9789" unicode="&#x215a;" 
d="M651 185l2 -1c19 29 56 50 103 50c88 0 141 -51 141 -117c0 -56 -32 -129 -162 -129c-99 0 -171 55 -171 192c0 72 31 192 176 192c62 0 137 -27 137 -78c0 -15 -9 -30 -28 -30c-24 0 -34 11 -46 33c-15 27 -34 41 -66 41c-21 0 -86 -11 -86 -153zM732 22
c55 0 78 46 78 94c0 32 -15 84 -74 84c-50 0 -82 -38 -82 -71c0 -61 28 -107 78 -107zM128 547l29 189h175c29 0 33 1 37 9h35l-18 -64h-200l-18 -98l1 -1c24 16 52 26 94 26c96 0 150 -52 150 -119c0 -78 -56 -131 -168 -131c-81 0 -143 37 -143 80c0 20 15 31 31 31
c15 0 26 -4 37 -19c22 -35 37 -58 78 -58c65 0 77 57 77 94c0 43 -22 89 -81 89c-35 0 -64 -15 -86 -37zM762 742l-466 -754h-62l466 754h62z" />
    <glyph glyph-name="Japan1.9790" unicode="&#x2150;" 
d="M177 664l-4 34c58 15 95 29 132 46l10 -5v-298c0 -37 4 -44 53 -44v-33h-194v33c53 0 57 7 57 44v197c0 24 -3 35 -16 35c-10 0 -21 -4 -38 -9zM754 742l-466 -754h-62l466 754h62zM582 264l21 102h301l10 -16c-87 -96 -155 -226 -159 -360h-94c8 154 115 271 171 322
h-151c-45 0 -52 -6 -63 -48h-36z" />
    <glyph glyph-name="Japan1.9791" 
d="M373 473l33 -4l-19 -105h-289l-11 10c30 122 91 159 147 188c53 29 79 51 79 88c0 35 -22 57 -66 57c-46 0 -64 -26 -76 -56c-10 -21 -21 -29 -40 -29c-17 0 -30 15 -30 35c0 41 57 85 148 85c84 0 152 -30 152 -95c0 -42 -28 -69 -62 -89c-37 -23 -77 -39 -110 -55
c-46 -21 -71 -49 -83 -85h165c43 0 50 11 62 55zM756 742l-466 -754h-62l466 754h62zM579 264l21 102h302l10 -16c-37 -41 -83 -96 -117 -179c-22 -52 -41 -112 -42 -181h-94c6 126 78 237 171 322h-151c-45 0 -52 -6 -63 -48h-37z" />
    <glyph glyph-name="Japan1.9792" 
d="M198 544v34c17 0 34 1 51 4c30 7 62 30 62 68c0 40 -35 58 -68 58c-32 0 -54 -19 -69 -45c-11 -20 -19 -33 -46 -33c-18 0 -28 14 -28 30c0 43 68 82 146 82c36 0 151 -5 151 -93c0 -62 -71 -80 -112 -84v-2c76 -4 130 -40 130 -96c0 -60 -59 -109 -170 -109
c-106 0 -154 46 -154 83c0 18 11 32 31 32c21 0 25 -5 60 -50c15 -18 32 -31 64 -31c46 0 81 24 81 74c0 70 -83 78 -129 78zM751 742l-465 -754h-62l466 754h61zM577 264l21 102h302l9 -16c-36 -41 -82 -96 -116 -179c-22 -52 -41 -112 -43 -181h-94c3 60 21 118 53 174
s74 107 119 148h-152c-44 0 -51 -6 -63 -48h-36z" />
    <glyph glyph-name="Japan1.9793" 
d="M277 461h-197v22l189 259h91v-247h61l-5 -34h-56c0 -59 0 -64 42 -64v-33h-173v33c48 0 48 5 48 64zM221 621l-89 -126h145v127c0 15 1 54 3 76h-6c-11 -16 -37 -55 -53 -77zM763 742l-466 -754h-62l466 754h62zM586 264l21 102h302l10 -16c-37 -41 -82 -96 -117 -179
c-22 -52 -41 -112 -42 -181h-94c7 148 106 262 170 322h-150c-45 0 -52 -6 -63 -48h-37z" />
    <glyph glyph-name="Japan1.9794" 
d="M118 547l29 189h175c28 0 33 1 37 9h35l-18 -64h-200l-18 -98l1 -1c23 16 52 26 94 26c96 0 150 -52 150 -119c0 -78 -56 -131 -168 -131c-82 0 -143 37 -143 80c0 20 15 31 31 31c15 0 26 -4 36 -19c34 -48 41 -58 79 -58c55 0 77 44 77 94c0 42 -18 88 -81 88
c-35 0 -64 -14 -86 -36zM747 742l-465 -754h-63l466 754h62zM576 264l20 102h302l10 -16c-37 -41 -82 -96 -116 -179c-23 -52 -42 -112 -43 -181h-94c6 126 78 237 171 322h-151c-45 0 -52 -6 -63 -48h-36z" />
    <glyph glyph-name="Japan1.9795" 
d="M179 554h2c19 29 55 49 103 49c97 0 142 -59 142 -116c0 -48 -24 -129 -163 -129c-99 0 -171 55 -171 191c0 75 32 193 176 193c67 0 138 -30 138 -78c0 -16 -10 -30 -29 -30c-24 0 -33 11 -46 33c-12 20 -25 41 -65 41c-25 0 -87 -13 -87 -154zM264 570
c-51 0 -82 -39 -82 -71c0 -61 28 -107 78 -107c53 0 78 44 78 94c0 35 -18 84 -74 84zM753 742l-465 -754h-62l466 754h61zM575 264l21 102h301l10 -16c-37 -41 -82 -96 -117 -179c-22 -52 -41 -112 -42 -181h-94c8 165 131 286 171 322h-151c-45 0 -52 -6 -63 -48h-36z" />
    <glyph glyph-name="Japan1.9796" 
d="M797 205v-2c43 -16 100 -50 100 -102c0 -69 -60 -113 -173 -113c-97 0 -165 35 -165 98c0 45 52 77 94 92v1c-19 8 -78 37 -78 98c0 68 76 95 154 95c77 0 152 -29 152 -85c0 -46 -39 -68 -84 -82zM727 338c-61 0 -71 -31 -71 -47c0 -34 33 -49 91 -69c27 11 53 26 53 62
c0 33 -28 54 -73 54zM725 22c20 0 83 6 83 59c0 42 -54 59 -110 77c-16 -7 -58 -25 -58 -69c0 -55 53 -67 85 -67zM228 441v197c0 24 -3 35 -16 35c-10 0 -21 -4 -38 -9l-5 34c59 15 96 29 133 46l10 -5v-298c0 -37 4 -44 53 -44v-33h-194v33c53 0 57 7 57 44zM757 742
l-466 -754h-62l466 754h62z" />
    <glyph glyph-name="Japan1.9797" 
d="M797 205v-2c43 -16 100 -50 100 -102c0 -69 -60 -113 -173 -113c-97 0 -165 35 -165 98c0 45 52 77 94 92v1c-19 8 -78 37 -78 98c0 68 76 95 154 95c77 0 152 -29 152 -85c0 -46 -39 -68 -84 -82zM727 338c-61 0 -71 -31 -71 -47c0 -34 33 -49 91 -69c27 11 53 26 53 62
c0 33 -28 54 -73 54zM725 22c20 0 83 6 83 59c0 42 -54 59 -110 77c-16 -7 -58 -25 -58 -69c0 -55 53 -67 85 -67zM208 544v34c18 0 34 1 51 4c40 9 63 39 63 68c0 41 -36 58 -69 58c-26 0 -53 -15 -68 -45c-11 -20 -19 -33 -47 -33c-18 0 -28 14 -28 30c0 43 66 82 147 82
c51 0 151 -12 151 -93c0 -31 -21 -74 -112 -84v-2c78 -4 129 -43 129 -96c0 -63 -63 -109 -169 -109c-103 0 -154 43 -154 83c0 18 10 32 30 32c13 0 23 -4 32 -15c8 -9 17 -21 29 -35c14 -18 31 -31 63 -31c52 0 82 28 82 74c0 78 -105 78 -130 78zM759 742l-465 -754h-62
l466 754h61z" />
    <glyph glyph-name="Japan1.9798" 
d="M797 205v-2c43 -16 100 -50 100 -102c0 -69 -60 -113 -173 -113c-97 0 -165 35 -165 98c0 45 52 77 94 92v1c-19 8 -78 37 -78 98c0 68 76 95 154 95c77 0 152 -29 152 -85c0 -46 -39 -68 -84 -82zM727 338c-61 0 -71 -31 -71 -47c0 -34 33 -49 91 -69c27 11 53 26 53 62
c0 33 -28 54 -73 54zM725 22c20 0 83 6 83 59c0 42 -54 59 -110 77c-16 -7 -58 -25 -58 -69c0 -55 53 -67 85 -67zM128 547l29 189h175c28 0 33 1 37 9h35l-18 -64h-200l-18 -98l1 -1c23 16 52 26 94 26c96 0 150 -52 150 -119c0 -78 -56 -131 -168 -131
c-84 0 -143 38 -143 80c0 20 15 31 31 31c15 0 26 -4 36 -19c34 -48 41 -58 79 -58c55 0 77 44 77 94c0 43 -21 88 -81 88c-35 0 -64 -14 -86 -36zM756 742l-465 -754h-62l466 754h61z" />
    <glyph glyph-name="Japan1.9799" 
d="M649 178v1c-24 10 -77 40 -77 98c0 67 73 95 153 95c81 0 153 -31 153 -85c0 -44 -37 -67 -85 -82v-2c50 -17 101 -54 101 -102c0 -70 -63 -113 -174 -113c-93 0 -164 33 -164 98c0 47 51 76 93 92zM724 338c-72 0 -72 -43 -72 -47c0 -34 37 -50 92 -69c21 8 53 23 53 62
c0 23 -16 54 -73 54zM722 22c28 0 83 11 83 59c0 36 -38 54 -110 77c-18 -8 -59 -27 -59 -69c0 -44 40 -67 86 -67zM735 742l-466 -754h-62l466 754h62zM105 630l21 102h302l9 -16c-36 -41 -81 -95 -116 -177c-22 -51 -41 -112 -42 -179h-94c7 141 98 251 170 318h-150
c-45 0 -52 -6 -63 -48h-37z" />
    <glyph glyph-name="Japan1.9800" unicode="&#x2151;" 
d="M811 175l-2 1c-20 -29 -56 -50 -103 -50c-92 0 -142 54 -142 117c0 62 38 129 163 129c111 0 170 -67 170 -192c0 -95 -45 -192 -175 -192c-56 0 -138 24 -138 78c0 15 9 30 29 30c24 0 33 -11 46 -33c15 -27 33 -41 65 -41c35 0 87 26 87 153zM730 338
c-33 0 -78 -19 -78 -95c0 -31 16 -83 73 -83c48 0 83 35 83 71c0 61 -29 107 -78 107zM228 441v197c0 24 -3 35 -16 35c-10 0 -21 -4 -38 -9l-5 34c59 15 96 29 133 46l10 -5v-298c0 -37 4 -44 53 -44v-33h-194v33c53 0 57 7 57 44zM757 742l-466 -754h-62l466 754h62z" />
    <glyph glyph-name="Japan1.9801" 
d="M811 175l-2 1c-20 -29 -56 -50 -103 -50c-92 0 -142 54 -142 117c0 62 38 129 163 129c111 0 170 -67 170 -192c0 -95 -45 -192 -175 -192c-56 0 -138 24 -138 78c0 15 9 30 29 30c24 0 33 -11 46 -33c15 -27 33 -41 65 -41c35 0 87 26 87 153zM730 338
c-33 0 -78 -19 -78 -95c0 -31 16 -83 73 -83c48 0 83 35 83 71c0 61 -29 107 -78 107zM384 473l34 -4l-19 -105h-289l-12 10c30 111 73 150 148 188c53 29 79 51 79 88c0 45 -34 57 -66 57c-46 0 -64 -26 -76 -56c-10 -21 -21 -29 -40 -29c-17 0 -31 15 -31 35
c0 38 54 85 149 85c103 0 152 -43 152 -95c0 -42 -28 -69 -62 -89c-38 -23 -77 -39 -110 -55c-46 -21 -71 -49 -84 -85h165c43 0 51 11 62 55zM763 742l-465 -754h-62l465 754h62z" />
    <glyph glyph-name="Japan1.9802" 
d="M288 461h-197v22l189 259h91v-247h61l-5 -34h-56c0 -59 0 -64 42 -64v-33h-173v33c48 0 48 5 48 64zM233 621l-89 -126h144v127c0 15 1 54 3 76h-6zM822 175l-2 1c-20 -29 -56 -50 -103 -50c-92 0 -142 54 -142 117c0 62 38 129 163 129c110 0 171 -66 171 -192
c0 -76 -33 -192 -176 -192c-66 0 -138 30 -138 78c0 15 10 30 29 30c24 0 33 -11 46 -33c17 -31 37 -41 66 -41c27 0 86 17 86 153zM741 338c-53 0 -78 -41 -78 -95c0 -31 16 -83 73 -83c48 0 83 35 83 71c0 61 -28 107 -78 107zM771 742l-466 -754h-62l466 754h62z" />
    <glyph glyph-name="Japan1.9803" 
d="M811 175l-2 1c-20 -29 -56 -50 -103 -50c-92 0 -142 54 -142 117c0 62 38 129 163 129c111 0 170 -67 170 -192c0 -95 -45 -192 -175 -192c-56 0 -138 24 -138 78c0 15 9 30 29 30c24 0 33 -11 46 -33c15 -27 33 -41 65 -41c35 0 87 26 87 153zM730 338
c-33 0 -78 -19 -78 -95c0 -31 16 -83 73 -83c48 0 83 35 83 71c0 61 -29 107 -78 107zM128 547l29 189h175c28 0 33 1 37 9h35l-18 -64h-200l-18 -98l1 -1c23 16 52 26 94 26c96 0 150 -52 150 -119c0 -78 -56 -131 -168 -131c-84 0 -143 38 -143 80c0 20 15 31 31 31
c15 0 26 -4 36 -19c34 -48 41 -58 79 -58c55 0 77 44 77 94c0 43 -21 88 -81 88c-35 0 -64 -14 -86 -36zM756 742l-466 -754h-62l466 754h62z" />
    <glyph glyph-name="Japan1.9804" 
d="M808 175l-2 1c-20 -29 -56 -50 -103 -50c-92 0 -142 54 -142 117c0 62 38 129 163 129c111 0 170 -67 170 -192c0 -95 -45 -192 -175 -192c-60 0 -138 26 -138 78c0 15 9 30 29 30c23 0 33 -11 46 -33c15 -27 33 -41 65 -41c35 0 87 26 87 153zM727 338
c-33 0 -78 -19 -78 -95c0 -31 16 -83 73 -83c48 0 83 35 83 71c0 61 -29 107 -78 107zM733 742l-466 -754h-62l466 754h62zM105 634l21 102h301l10 -16c-90 -99 -155 -229 -159 -360h-94c8 160 124 280 171 321h-151c-45 0 -52 -5 -63 -47h-36z" />
    <glyph glyph-name="Japan1.9805" 
d="M335 575v-2c40 -16 100 -47 100 -103c0 -64 -55 -112 -173 -112c-102 0 -165 38 -165 98c0 44 50 76 93 92v1c-13 6 -77 36 -77 97c0 70 82 96 154 96c74 0 152 -27 152 -85c0 -48 -38 -68 -84 -82zM265 708c-65 0 -71 -34 -71 -47c0 -29 24 -48 91 -69
c27 10 53 23 53 62c0 29 -23 54 -73 54zM263 392c38 0 84 15 84 59c0 17 -11 34 -35 47c-18 10 -41 19 -76 29c-16 -6 -32 -15 -42 -27c-9 -11 -16 -25 -16 -41c0 -33 23 -67 85 -67zM815 175l-2 1c-20 -29 -56 -50 -104 -50c-92 0 -141 55 -141 117s38 129 163 129
c108 0 170 -65 170 -192c0 -95 -45 -192 -175 -192c-66 0 -139 29 -139 78c0 15 10 30 29 30c24 0 34 -11 47 -33c15 -27 33 -41 65 -41c35 0 87 26 87 153zM734 338c-33 0 -78 -19 -78 -95c0 -29 15 -83 73 -83c49 0 83 38 83 71c0 61 -29 107 -78 107zM764 742l-465 -754
h-62l466 754h61z" />
    <glyph glyph-name="Japan1.9806" unicode="&#x2152;" 
d="M803 -12c-59 0 -140 28 -140 192c0 99 32 192 141 192c111 0 142 -93 142 -191c0 -107 -39 -193 -143 -193zM804 338c-49 0 -54 -73 -54 -159c0 -88 6 -157 55 -157c53 0 54 100 54 157c0 94 -8 159 -55 159zM164 441v197c0 24 -3 35 -16 35c-10 0 -21 -4 -38 -9l-4 34
c58 15 95 29 132 46l11 -5v-298c0 -37 3 -44 53 -44v-33h-195v33c53 0 57 7 57 44zM666 742l-465 -754h-63l466 754h62zM517 71v197c0 28 -2 35 -13 35c-8 0 -19 -2 -31 -6l-5 33c43 11 86 27 123 44l9 -5v-298c0 -37 5 -44 45 -44v-33h-175v33c44 0 47 7 47 44z" />
    <glyph glyph-name="Japan1.9807" 
d="M813 -12c-59 0 -140 28 -140 192c0 75 17 192 141 192c109 0 142 -91 142 -191c0 -117 -47 -193 -143 -193zM814 338c-49 0 -54 -73 -54 -159c0 -88 6 -157 55 -157c54 0 54 111 54 157c0 63 -2 159 -55 159zM150 544v34c17 0 34 1 51 4c35 8 63 36 63 68
c0 42 -39 58 -69 58c-29 0 -54 -18 -68 -45c-12 -20 -20 -33 -47 -33c-18 0 -28 14 -28 30c0 43 66 82 147 82c36 0 150 -5 150 -93c0 -62 -70 -79 -111 -84v-2c78 -4 129 -43 129 -96c0 -62 -61 -109 -170 -109c-106 0 -154 46 -154 83c0 18 11 32 31 32c21 0 25 -5 60 -50
c15 -18 32 -31 64 -31c44 0 81 21 81 74c0 73 -90 78 -129 78zM676 742l-465 -754h-63l466 754h62zM527 71v197c0 28 -3 35 -14 35c-7 0 -18 -2 -30 -6l-5 33c43 11 86 27 122 44l10 -5v-298c0 -37 5 -44 45 -44v-33h-175v33c44 0 47 7 47 44z" />
    <glyph glyph-name="Japan1.9808" 
d="M791 -12c-59 0 -140 28 -140 192c0 75 17 192 141 192c109 0 142 -91 142 -191c0 -107 -39 -193 -143 -193zM792 338c-51 0 -54 -80 -54 -159c0 -88 6 -157 55 -157c54 0 54 111 54 157c0 63 -2 159 -55 159zM654 742l-465 -754h-62l465 754h62zM65 632l21 101h302l9 -15
c-36 -41 -81 -96 -116 -178c-23 -52 -41 -112 -42 -180h-95c8 158 129 281 171 319h-150c-45 0 -53 -6 -64 -47h-36zM505 71v197c0 28 -3 35 -14 35c-7 0 -18 -2 -30 -6l-5 33c43 11 86 27 122 44l11 -5v-298c0 -37 4 -44 44 -44v-33h-175v33c44 0 47 7 47 44z" />
    <glyph glyph-name="Japan1.9809" 
d="M292 545h-2c-19 -28 -55 -49 -103 -49c-96 0 -141 58 -141 117c0 76 53 129 163 129c107 0 170 -65 170 -192c0 -105 -54 -192 -175 -192c-80 0 -139 36 -139 78c0 15 10 30 29 30c24 0 34 -11 46 -34c15 -26 34 -40 66 -40c19 0 40 8 56 28c19 24 30 66 30 125zM211 708
c-46 0 -78 -35 -78 -95c0 -26 15 -84 74 -84c47 0 83 39 83 71c0 61 -29 108 -79 108zM811 -12c-58 0 -140 30 -140 192c0 99 32 192 141 192c111 0 142 -93 142 -191c0 -107 -39 -193 -143 -193zM812 338c-49 0 -54 -73 -54 -159c0 -88 6 -157 55 -157c53 0 54 100 54 157
c0 94 -8 159 -55 159zM674 742l-465 -754h-62l465 754h62zM525 71v197c0 28 -2 35 -13 35c-8 0 -19 -2 -31 -6l-5 33c43 11 86 27 123 44l10 -5v-298c0 -37 4 -44 44 -44v-33h-175v33c44 0 47 7 47 44z" />
    <glyph glyph-name="Japan1.9810" 
d="M132 664l-5 34c59 15 96 29 133 46l10 -5v-298c0 -37 4 -44 53 -44v-33h-194v33c53 0 57 7 57 44v197c0 24 -3 35 -16 35c-10 0 -22 -4 -38 -9zM684 742l-465 -754h-62l466 754h61zM504 297l-5 33c43 11 86 27 122 44l10 -5v-298c0 -37 4 -44 45 -44v-33h-175v33
c44 0 47 7 47 44v197c0 28 -3 35 -14 35c-7 0 -19 -2 -30 -6zM767 297l-5 33c43 11 86 27 123 44l10 -5v-298c0 -37 4 -44 44 -44v-33h-175v33c44 0 47 7 47 44v197c0 28 -2 35 -13 35c-8 0 -19 -2 -31 -6z" />
    <glyph glyph-name="Japan1.9811" 
d="M341 473l33 -4l-19 -105h-289l-11 10c28 114 77 153 147 188c53 29 79 51 79 88c0 35 -22 57 -66 57c-46 0 -64 -26 -76 -56c-10 -21 -21 -29 -40 -29c-17 0 -30 15 -30 35c0 41 57 85 148 85c84 0 152 -30 152 -95c0 -42 -28 -69 -62 -89c-37 -23 -77 -39 -110 -55
c-46 -21 -71 -49 -83 -85h165c43 0 50 11 62 55zM699 742l-466 -754h-62l466 754h62zM504 297l-5 33c43 11 86 27 122 44l10 -5v-298c0 -37 4 -44 45 -44v-33h-175v33c44 0 47 7 47 44v197c0 28 -3 35 -14 35c-7 0 -19 -2 -30 -6zM767 297l-5 33c43 11 86 27 123 44l10 -5
v-298c0 -37 4 -44 44 -44v-33h-175v33c44 0 47 7 47 44v197c0 28 -2 35 -13 35c-8 0 -19 -2 -31 -6z" />
    <glyph glyph-name="Japan1.9812" 
d="M167 544v34c17 0 34 1 51 4c30 7 62 30 62 68c0 40 -35 58 -68 58c-32 0 -54 -19 -69 -45c-11 -20 -19 -33 -46 -33c-18 0 -28 14 -28 30c0 43 68 82 146 82c35 0 151 -5 151 -93c0 -62 -71 -80 -112 -84v-2c76 -4 130 -40 130 -96c0 -60 -59 -109 -170 -109
c-106 0 -154 46 -154 83c0 18 11 32 31 32c21 0 25 -5 60 -50c15 -18 32 -31 64 -31c46 0 81 24 81 74c0 70 -83 78 -129 78zM691 742l-466 -754h-62l466 754h62zM504 297l-5 33c43 11 86 27 122 44l10 -5v-298c0 -37 4 -44 45 -44v-33h-175v33c44 0 47 7 47 44v197
c0 28 -3 35 -14 35c-7 0 -19 -2 -30 -6zM767 297l-5 33c43 11 86 27 123 44l10 -5v-298c0 -37 4 -44 44 -44v-33h-175v33c44 0 47 7 47 44v197c0 28 -2 35 -13 35c-8 0 -19 -2 -31 -6z" />
    <glyph glyph-name="Japan1.9813" 
d="M252 461h-197v22l189 259h90v-247h62l-5 -34h-57c0 -58 0 -64 42 -64v-33h-173v33c49 0 49 5 49 64zM196 621l-89 -126h145v127c0 15 1 54 3 76h-6zM710 742l-466 -754h-62l466 754h62zM548 71v197c0 28 -3 35 -14 35c-7 0 -19 -2 -30 -6l-5 33c43 11 86 27 122 44l10 -5
v-298c0 -37 4 -44 45 -44v-33h-175v33c44 0 47 7 47 44zM811 71v197c0 28 -2 35 -13 35c-8 0 -19 -2 -31 -6l-5 33c43 11 86 27 123 44l10 -5v-298c0 -37 4 -44 44 -44v-33h-175v33c44 0 47 7 47 44z" />
    <glyph glyph-name="Japan1.9814" 
d="M88 547l29 189h175c28 0 33 1 37 9h35l-18 -64h-200l-18 -98l1 -1c23 16 52 26 94 26c102 0 150 -57 150 -119c0 -81 -61 -131 -167 -131c-85 0 -144 38 -144 80c0 20 15 31 31 31c15 0 26 -4 36 -19c34 -48 41 -58 79 -58c50 0 77 37 77 94c0 72 -46 88 -81 88
s-64 -14 -86 -36zM691 742l-466 -754h-62l466 754h62zM500 297l-4 33c43 11 86 27 122 44l10 -5v-298c0 -37 4 -44 44 -44v-33h-174v33c44 0 47 7 47 44v197c0 28 -3 35 -14 35c-7 0 -19 -2 -31 -6zM764 297l-5 33c43 11 86 27 122 44l11 -5v-298c0 -37 4 -44 44 -44v-33
h-175v33c44 0 47 7 47 44v197c0 28 -2 35 -13 35c-8 0 -19 -2 -31 -6z" />
    <glyph glyph-name="Japan1.9815" 
d="M145 554h3c19 29 55 49 103 49c98 0 141 -60 141 -116c0 -55 -29 -129 -163 -129c-99 0 -170 55 -170 191c0 100 48 193 175 193c71 0 138 -32 138 -78c0 -16 -9 -30 -29 -30c-23 0 -33 11 -46 33c-10 19 -27 41 -65 41c-31 0 -87 -20 -87 -154zM230 570
c-46 0 -82 -35 -82 -71c0 -61 29 -107 79 -107c48 0 77 37 77 94c0 32 -15 84 -74 84zM697 742l-466 -754h-62l466 754h62zM548 71v197c0 28 -3 35 -14 35c-7 0 -19 -2 -30 -6l-5 33c43 11 86 27 122 44l10 -5v-298c0 -37 4 -44 45 -44v-33h-175v33c44 0 47 7 47 44zM811 71
v197c0 28 -2 35 -13 35c-8 0 -19 -2 -31 -6l-5 33c43 11 86 27 123 44l10 -5v-298c0 -37 4 -44 44 -44v-33h-175v33c44 0 47 7 47 44z" />
    <glyph glyph-name="Japan1.9816" 
d="M677 742l-466 -754h-62l466 754h62zM72 634l22 102h301l10 -16c-37 -41 -82 -96 -117 -179c-22 -52 -40 -113 -42 -181h-94c8 160 124 280 171 321h-151c-45 0 -52 -5 -63 -47h-37zM489 297l-4 33c43 11 86 27 122 44l10 -5v-298c0 -37 4 -44 45 -44v-33h-175v33
c44 0 47 7 47 44v197c0 28 -3 35 -14 35c-7 0 -19 -2 -31 -6zM753 297l-5 33c43 11 86 27 122 44l11 -5v-298c0 -37 4 -44 44 -44v-33h-175v33c44 0 47 7 47 44v197c0 28 -2 35 -13 35c-8 0 -19 -2 -31 -6z" />
    <glyph glyph-name="Japan1.9817" 
d="M298 575v-2c40 -16 100 -47 100 -103c0 -64 -55 -112 -173 -112c-102 0 -165 38 -165 98c0 44 50 76 93 92v1c-13 6 -77 36 -77 97c0 71 84 96 153 96c77 0 153 -28 153 -85c0 -48 -38 -68 -84 -82zM228 708c-65 0 -71 -34 -71 -47c0 -29 24 -48 91 -69c18 7 53 21 53 62
c0 29 -23 54 -73 54zM226 392c38 0 84 15 84 59c0 17 -11 34 -35 47c-18 10 -41 19 -76 29c-16 -6 -32 -15 -42 -27c-9 -11 -16 -25 -16 -41c0 -33 23 -67 85 -67zM699 742l-466 -754h-62l466 754h62zM548 71v197c0 28 -3 35 -14 35c-7 0 -19 -2 -30 -6l-5 33
c43 11 86 27 122 44l10 -5v-298c0 -37 4 -44 45 -44v-33h-175v33c44 0 47 7 47 44zM811 71v197c0 28 -2 35 -13 35c-8 0 -19 -2 -31 -6l-5 33c43 11 86 27 123 44l10 -5v-298c0 -37 4 -44 44 -44v-33h-175v33c44 0 47 7 47 44z" />
    <glyph glyph-name="Japan1.9818" 
d="M307 545h-2c-20 -28 -56 -49 -103 -49c-96 0 -142 56 -142 117c0 81 60 129 163 129c108 0 171 -65 171 -192c0 -85 -39 -192 -176 -192c-78 0 -138 35 -138 78c0 15 10 30 29 30c24 0 33 -11 46 -34c18 -31 38 -40 66 -40c37 0 86 31 86 153zM226 708
c-58 0 -78 -47 -78 -95c0 -31 16 -84 73 -84c46 0 83 36 83 71c0 61 -28 108 -78 108zM691 742l-466 -754h-62l466 754h62zM548 71v197c0 28 -3 35 -14 35c-7 0 -19 -2 -30 -6l-5 33c43 11 86 27 122 44l10 -5v-298c0 -37 4 -44 45 -44v-33h-175v33c44 0 47 7 47 44zM811 71
v197c0 28 -2 35 -13 35c-8 0 -19 -2 -31 -6l-5 33c43 11 86 27 123 44l10 -5v-298c0 -37 4 -44 44 -44v-33h-175v33c44 0 47 7 47 44z" />
    </font>
</defs>
</svg>
