<?xml version="1.0" encoding="utf-8"?>
<!-- Generator: Adobe Illustrator 16.0.0, SVG Export Plug-In . SVG Version: 6.00 Build 0)  -->
<!DOCTYPE svg PUBLIC "-//W3C//DTD SVG 1.0//EN" "http://www.w3.org/TR/2001/REC-SVG-20010904/DTD/svg10.dtd">
<svg version="1.0" xmlns="http://www.w3.org/2000/svg" xmlns:xlink="http://www.w3.org/1999/xlink" x="0px" y="0px"
	 width="425.197px" height="283.465px" viewBox="0 0 425.197 283.465" enable-background="new 0 0 425.197 283.465"
	 xml:space="preserve">
<g id="圖層_1">
</g>
<g id="圖層_2">
	<path fill="#FFFFFF" d="M0,26.691v53.725v124.303v52.389h0.012c0,0,0.118,6.983,7.904,7.536l-0.078,0.062l416.421-27.11
		c0.432-0.081,1.135-0.385,1.32-1.622v-7.304V56.884v-7.732c0-1.17-0.894-1.514-1.373-1.618L8.361,18.761
		C-0.162,19.074,0,26.691,0,26.691z M411.769,65.124v155.213c-0.425,4.05-3.66,7.287-7.814,7.287L271.64,173.889
		c0,0-8.076-0.455-8.076-8.591v-45.751c0.228-7.729,7.869-8.265,8.01-8.274l132.85-53.384
		C408.348,58.124,411.361,61.233,411.769,65.124z"/>
</g>
</svg>
