<?xml version="1.0" encoding="utf-8"?>
<!-- Generator: Adobe Illustrator 16.0.0, SVG Export Plug-In . SVG Version: 6.00 Build 0)  -->
<!DOCTYPE svg PUBLIC "-//W3C//DTD SVG 1.0//EN" "http://www.w3.org/TR/2001/REC-SVG-20010904/DTD/svg10.dtd">
<svg version="1.0" xmlns="http://www.w3.org/2000/svg" xmlns:xlink="http://www.w3.org/1999/xlink" x="0px" y="0px"
	 width="25.043px" height="62.629px" viewBox="0 0 25.043 62.629" enable-background="new 0 0 25.043 62.629" xml:space="preserve">
<g id="圖層_1">
</g>
<g id="圖層_2">
	<g>
		<path fill="#FFFFFF" d="M24.236,0h-5.471H6.108H0.774v0.001c0,0-0.711,0.012-0.768,0.805L0,0.798l2.761,49.52
			c0.008,0.044,0.039,0.115,0.165,0.134h0.744h17.492h0.787c0.119,0,0.154-0.091,0.165-0.14l2.93-49.461
			C25.011-0.017,24.236,0,24.236,0z M20.322,49.045H4.518c-0.413-0.043-0.742-0.373-0.742-0.796L6.009,2.053
			c0,0,0.046-0.822,0.875-0.822H18.02c0.787,0.023,0.841,0.801,0.842,0.815l2.197,46.251C21.035,48.697,20.718,49.004,20.322,49.045
			z"/>
		<path fill="#FFFFFF" d="M10.664,62.407c-0.146-0.148-0.219-0.326-0.219-0.535c0-0.208,0.074-0.385,0.222-0.531
			c0.148-0.146,0.327-0.219,0.535-0.219s0.385,0.073,0.531,0.219c0.146,0.146,0.219,0.323,0.219,0.531
			c0,0.208-0.072,0.386-0.216,0.535c-0.144,0.148-0.322,0.222-0.534,0.222S10.81,62.555,10.664,62.407z"/>
		<path fill="#FFFFFF" d="M8.673,58.745c-0.307-0.385-0.833-0.808-1.581-1.268l-1.194-0.737c-0.447-0.274-0.776-0.538-0.988-0.79
			c-0.212-0.248-0.318-0.546-0.318-0.896c0-0.39,0.138-0.694,0.415-0.913s0.601-0.329,0.973-0.329c0.478,0,0.962,0.172,1.451,0.518
			c0.285,0.201,0.522,0.495,0.717,0.875l-0.001-0.007l0.316-0.401c0,0-0.285-0.868-1.454-1.303
			c-0.003-0.001-0.006-0.002-0.009-0.003c-0.101-0.035-0.197-0.065-0.291-0.092c-0.019-0.005-0.038-0.011-0.058-0.016
			c-0.29-0.08-0.547-0.121-0.771-0.121c-0.752,0-1.356,0.228-1.813,0.684c-0.456,0.456-0.684,1.027-0.684,1.713
			c0,0.518,0.192,0.992,0.577,1.421c0.208,0.226,0.487,0.449,0.836,0.671l1.16,0.724c0.667,0.416,1.104,0.728,1.312,0.936
			c0.318,0.328,0.478,0.713,0.478,1.155c0,0.492-0.158,0.875-0.474,1.149s-0.691,0.412-1.124,0.412c-0.8,0-1.469-0.316-2.009-0.95
			c-0.28-0.328-0.525-0.763-0.74-1.294l-0.443,0.411c0,0,0.507,1.936,2.663,2.275c0.038,0.007,0.076,0.013,0.113,0.019
			c0.022,0.002,0.042,0.008,0.065,0.01c0,0-0.004-0.001-0.011-0.003c0.16,0.022,0.317,0.036,0.471,0.036
			c0.837,0,1.524-0.239,2.062-0.717c0.538-0.478,0.807-1.074,0.807-1.786C9.126,59.595,8.976,59.134,8.673,58.745z"/>
		<path fill="#FFFFFF" d="M22.068,62.31c-0.013-0.009-0.025-0.018-0.039-0.027l0,0l0,0c-0.211-0.148-0.511-0.362-0.645-0.484
			c0,0,0-0.001-0.001-0.001c-0.23-0.197-0.586-0.552-1.072-1.071l-3.238-3.499l2.654-2.46c0.062-0.059,0.122-0.114,0.18-0.167v0
			c0.168-0.156,0.909-0.885,1.123-1.096c0.045-0.045-0.015-0.059-0.015-0.059h-0.869c-0.121-0.003-0.187,0.071-0.187,0.071
			c-0.226,0.243-0.982,1.058-1.284,1.404c-0.014,0.016-0.025,0.029-0.039,0.045c-0.009,0.011-0.02,0.023-0.028,0.033l0,0
			c-0.224,0.249-0.515,0.543-0.874,0.885c-0.532,0.501-1.217,1.108-2.054,1.822l-0.003-4.115c0-0.121-0.067-0.143-0.104-0.146
			h-1.145c-0.08,0-0.11,0.034-0.121,0.068v8.817c0.008,0.05,0.04,0.111,0.15,0.111h1.114c0.079,0,0.1-0.067,0.105-0.119l0.003-3.806
			L16.1,58.13l2.619,2.83c0.038,0.042,0.073,0.082,0.106,0.121l0,0l0.003,0.005c0.084,0.099,0.156,0.191,0.214,0.277l0.726,0.942
			l0,0l0.02,0.025c0.034,0.04,0.115,0.113,0.26,0.113h2.054C22.229,62.44,22.13,62.355,22.068,62.31z"/>
	</g>
</g>
</svg>
