<?xml version="1.0" encoding="utf-8"?>
<!-- Generator: Adobe Illustrator 16.0.0, SVG Export Plug-In . SVG Version: 6.00 Build 0)  -->
<!DOCTYPE svg PUBLIC "-//W3C//DTD SVG 1.0//EN" "http://www.w3.org/TR/2001/REC-SVG-20010904/DTD/svg10.dtd">
<svg version="1.0" id="圖層_1" xmlns="http://www.w3.org/2000/svg" xmlns:xlink="http://www.w3.org/1999/xlink" x="0px" y="0px"
	 width="65px" height="65px" viewBox="0 0 65 65" enable-background="new 0 0 65 65" xml:space="preserve">
<g id="圖層_2">
	<path fill="#FFFFFF" d="M4.924,28.367v8.953h0.001c0,0-0.124,1.567,0.894,2.184c0,0,22.884,9.316,35.384,14.085
		C41.254,53.607,60.137,6.33,60.078,6.35c-14,4.971-54.208,19.721-54.208,19.721C4.924,26.465,4.924,28.367,4.924,28.367z
		 M59.403,11.444v44.953c0,2.186,0.05,2.506-0.884,2.11L7.546,37.126c0,0-0.304-0.099-0.304-1.369v-5.571
		c0-1.514,0.281-1.615,0.297-1.617L58.572,9.348C59.225,9.028,59.403,9.166,59.403,11.444z"/>
</g>
</svg>
