<?xml version="1.0" encoding="utf-8"?>
<!-- Generator: Adobe Illustrator 16.0.0, SVG Export Plug-In . SVG Version: 6.00 Build 0)  -->
<!DOCTYPE svg PUBLIC "-//W3C//DTD SVG 1.0//EN" "http://www.w3.org/TR/2001/REC-SVG-20010904/DTD/svg10.dtd">
<svg version="1.0" xmlns="http://www.w3.org/2000/svg" xmlns:xlink="http://www.w3.org/1999/xlink" x="0px" y="0px" width="65px"
	 height="65px" viewBox="0 0 65 65" enable-background="new 0 0 65 65" xml:space="preserve">
<g id="圖層_1">
</g>
<g id="圖層_2">
	<path fill="#FFFFFF" d="M28.366,60.076h8.953v-0.001c0,0,1.567,0.124,2.183-0.894c0,0,9.317-22.884,14.085-35.384
		C53.606,23.746,6.329,4.863,6.349,4.922c4.97,14,19.72,54.208,19.72,54.208C26.464,60.076,28.366,60.076,28.366,60.076z
		 M11.444,5.597h44.952c2.185,0,2.506-0.05,2.11,0.884L37.125,57.454c0,0-0.098,0.304-1.369,0.304h-5.571
		c-1.513,0-1.614-0.281-1.617-0.297L9.348,6.428C9.027,5.776,9.164,5.597,11.444,5.597z"/>
</g>
</svg>
