<?xml version="1.0" encoding="utf-8"?>
<!-- Generator: Adobe Illustrator 16.0.0, SVG Export Plug-In . SVG Version: 6.00 Build 0)  -->
<!DOCTYPE svg PUBLIC "-//W3C//DTD SVG 1.0//EN" "http://www.w3.org/TR/2001/REC-SVG-20010904/DTD/svg10.dtd">
<svg version="1.0" xmlns="http://www.w3.org/2000/svg" xmlns:xlink="http://www.w3.org/1999/xlink" x="0px" y="0px" width="65px"
	 height="65px" viewBox="0 0 65 65" enable-background="new 0 0 65 65" xml:space="preserve">
<g id="圖層_1">
	<polygon fill="none" stroke="#C7C8C8" stroke-width="0.25" stroke-miterlimit="10" points="725.5,283.5 670.5,283.5 662.5,140 
		734,140 	"/>
	<line fill="none" stroke="#C7C8C8" stroke-width="0.25" stroke-miterlimit="10" x1="680" y1="140" x2="670.5" y2="283.5"/>
	<line fill="none" stroke="#C7C8C8" stroke-width="0.25" stroke-miterlimit="10" x1="716" y1="140" x2="725.5" y2="283.5"/>
	<line fill="none" stroke="#C7C8C8" stroke-width="0.25" stroke-miterlimit="10" x1="642" y1="143.5" x2="750.5" y2="143.5"/>
	<line fill="none" stroke="#C7C8C8" stroke-width="0.25" stroke-miterlimit="10" x1="642" y1="279.5" x2="750.5" y2="279.5"/>
	<circle fill="none" stroke="#C7C8C8" stroke-width="0.25" stroke-miterlimit="10" cx="682.007" cy="145.792" r="2.292"/>
	<circle fill="none" stroke="#C7C8C8" stroke-width="0.25" stroke-miterlimit="10" cx="675.556" cy="277.188" r="2.292"/>
	<circle fill="none" stroke="#C7C8C8" stroke-width="0.25" stroke-miterlimit="10" cx="720.214" cy="277.208" r="2.292"/>
	<circle fill="none" stroke="#C7C8C8" stroke-width="0.25" stroke-miterlimit="10" cx="714.091" cy="145.792" r="2.292"/>
</g>
<g id="圖層_2">
	<path fill="#FFFFFF" d="M731.56,140H716h-36h-15.173v0.003c0,0-2.022,0.034-2.183,2.289l-0.018-0.022l7.852,140.848
		c0.023,0.125,0.111,0.329,0.47,0.382h2.115h49.752h2.239c0.339,0,0.438-0.259,0.469-0.397l8.333-140.681
		C733.766,139.953,731.56,140,731.56,140z M720.429,279.5h-44.952c-1.173-0.123-2.11-1.06-2.11-2.263l6.352-131.398
		c0,0,0.132-2.339,2.488-2.339h31.674c2.238,0.066,2.394,2.279,2.396,2.32l6.248,131.553
		C722.456,278.509,721.556,279.382,720.429,279.5z"/>
	<path fill="#FFFFFF" d="M1098.802,119.713h-15.56h-36h-15.173v0.003c0,0-2.022,0.034-2.183,2.289l-0.018-0.022l7.852,140.848
		c0.023,0.125,0.111,0.329,0.47,0.382h2.115h49.752h2.239c0.339,0,0.438-0.259,0.469-0.397l8.333-140.681
		C1101.008,119.667,1098.802,119.713,1098.802,119.713z M1087.671,259.213h-44.952c-1.173-0.123-2.11-1.06-2.11-2.263l6.352-131.398
		c0,0,0.132-2.339,2.488-2.339h31.674c2.238,0.066,2.394,2.279,2.396,2.32l6.248,131.553
		C1089.698,258.223,1088.798,259.095,1087.671,259.213z"/>
	<path fill="#FFFFFF" d="M280.893,179.579h-15.56h-36H214.16v0.003c0,0-2.022,0.034-2.183,2.289l-0.018-0.022l7.852,120.603
		c0.023,0.125,0.111,0.329,0.47,0.382h2.115h49.752h2.239c0.339,0,0.438-0.259,0.469-0.397L283.189,182
		C283.099,179.532,280.893,179.579,280.893,179.579z M269.762,298.833H224.81c-1.173-0.123-2.11-1.06-2.11-2.263l15.563-38.32
		c0,0,0.132-2.339,2.488-2.339H254c2.238,0.066,2.394,2.279,2.396,2.32l15.461,38.476
		C271.789,297.843,270.889,298.715,269.762,298.833z"/>
	<path fill="#FFFFFF" d="M159.888,115.651v8.953h0.001c0,0-0.124,1.567,0.894,2.183c0,0,22.884,9.317,35.384,14.085
		c0.051,0.02,18.934-47.258,18.875-47.237c-14,4.97-54.208,19.72-54.208,19.72C159.888,113.75,159.888,115.651,159.888,115.651z
		 M214.367,98.729v44.952c0,2.185,0.05,2.506-0.884,2.11l-50.973-21.381c0,0-0.304-0.098-0.304-1.369v-5.571
		c0-1.513,0.281-1.614,0.297-1.617l51.033-19.221C214.188,96.313,214.367,96.45,214.367,98.729z"/>
	<path fill="#FFFFFF" d="M67.388,115.651v8.953h0.001c0,0-0.124,1.567,0.894,2.183c0,0,22.884,9.317,35.384,14.085
		c0.051,0.02,18.934-47.258,18.875-47.237c-14,4.97-54.208,19.72-54.208,19.72C67.388,113.75,67.388,115.651,67.388,115.651z
		 M121.867,98.729v44.952c0,2.185,0.05,2.506-0.884,2.11L70.01,124.411c0,0-0.304-0.098-0.304-1.369v-5.571
		c0-1.513,0.281-1.614,0.297-1.617l51.033-19.221C121.688,96.313,121.867,96.45,121.867,98.729z"/>
	<path fill="#FFFFFF" d="M36.634,4.926h-8.953v0.001c0,0-1.567-0.124-2.183,0.894c0,0-9.317,22.884-14.085,35.384
		c-0.02,0.051,47.258,18.934,47.237,18.875c-4.97-14-19.72-54.208-19.72-54.208C38.535,4.926,36.634,4.926,36.634,4.926z
		 M53.556,59.405H8.604c-2.185,0-2.506,0.05-2.11-0.884L27.875,7.548c0,0,0.098-0.304,1.369-0.304h5.571
		c1.513,0,1.614,0.281,1.617,0.297l19.221,51.033C55.973,59.226,55.835,59.405,53.556,59.405z"/>
	<g>
		<path fill="#FFFFFF" d="M-116.5,182.44c0.006,0.001,14.011-35.086,16.882-42.198c0,0-16.764-6.92-16.882-6.876
			c-0.118-0.044-16.882,6.876-16.882,6.876C-130.511,147.354-116.506,182.442-116.5,182.44z"/>
	</g>
	<g>
		<path fill="#FFFFFF" d="M-1.863,231.736c0.47,0,0.884,0.074,0.884-2.11v-44.952c0-1.716-0.22-1.997-0.518-2.061
			c-3.53,8.902-13.875,34.797-16.864,42.203L-1.863,231.736z"/>
		<path fill="#FFFFFF" d="M2.958,184.503l-0.286,44.951c-0.014,2.185,0.4,2.113,0.87,2.116l16.542-6.815
			c-2.942-7.424-13.122-33.385-16.596-42.309C3.191,182.507,2.97,182.786,2.958,184.503z"/>
	</g>
	<path d="M849.227,140h-15.56h-36h-15.173v0.003c0,0-2.022,0.034-2.183,2.289l-0.018-0.022l7.852,140.848
		c0.023,0.125,0.111,0.329,0.47,0.382h2.115h49.752h2.239c0.339,0,0.438-0.259,0.469-0.397l8.333-140.681
		C851.433,139.953,849.227,140,849.227,140z M838.096,279.5h-44.952c-1.173-0.123-2.11-1.06-2.11-2.263l6.352-131.398
		c0,0,0.132-2.339,2.488-2.339h31.674c2.238,0.066,2.394,2.279,2.396,2.32l6.248,131.553
		C840.123,278.509,839.223,279.382,838.096,279.5z"/>
	<text transform="matrix(1 0 0 1 569.1631 81.4521)" font-family="'TrajanPro-Regular'" font-size="36.5172">AFTER</text>
</g>
</svg>
